<svg width="500" height="500" viewBox="0 0 500 500" fill="none" xmlns="http://www.w3.org/2000/svg">
<path d="M432 143.15C430.64 154.49 422.22 163.8 411.67 168.15C406.35 170.284 400.567 171 394.887 170.227C389.208 169.454 383.826 167.218 379.27 163.74C369.14 155.81 363.96 142.09 352.42 136.41C343.62 132.08 332.99 133.41 323.82 129.96C306.53 123.39 299.97 99.68 308.51 83.27C317.05 66.86 336.87 58.42 355.34 59.58C373.81 60.74 390.91 70.03 405.28 81.68C414.54 89.17 423.07 97.9 428.48 108.51C433.89 119.12 435.89 131.85 432 143.11" fill="#EBEBEB"/>
<path d="M369.71 254.18C352.19 245.67 330.82 250.63 312 256.76C293.18 262.89 273.25 270.13 254.11 265.63C237.97 261.84 225.11 250.11 215.89 237.01C206.67 223.91 200.16 209.18 191.71 195.58C183.26 181.98 175.59 164.08 160.43 157.65C145.27 151.22 121.13 145.58 97.56 159.19C72.22 174.19 59.6901 198.99 56.8901 210.61C52.4001 229.24 55.6101 266.4 58.7201 280.9C68.2601 325.38 92.9201 368 137.07 388C172.22 404 229.07 409.46 268.66 406.09C308.25 402.72 345.61 377.09 371.09 347.65C383.14 333.73 392.63 317.01 393.79 299.12C394.95 281.23 386.33 262.26 369.71 254.18Z" fill="#EBEBEB"/>
<path d="M213.9 45.61C206.61 39.69 194.47 35.11 182.34 37.3C181.71 37.4 181.07 37.53 180.44 37.69H180.35C178.928 38.0535 177.544 38.5559 176.22 39.19C171.49 41.45 166.29 44.48 162.94 48.51C158.255 54.2489 155.716 61.4414 155.76 68.85C155.84 79.46 164.29 88.43 173.86 93.04C183.1 97.49 194.09 98.86 203.77 95.44C213.45 92.02 221.46 83.44 222.89 73.25C224.29 63.47 221.58 51.84 213.9 45.61Z" fill="#EBEBEB"/>
<path d="M275.11 60.58H275.62L277.11 60.63C277.44 60.63 277.8 60.63 278.21 60.63L279.52 60.82L281.05 61.04L282.76 61.47C284.1 61.8129 285.413 62.2507 286.69 62.78L288.84 63.78C289.58 64.14 290.29 64.63 291.05 65.07C294.828 67.464 298.007 70.6916 300.344 74.5052C302.681 78.3188 304.113 82.617 304.53 87.07C304.645 88.4001 304.676 89.7361 304.62 91.07C304.62 91.75 304.62 92.44 304.5 93.07C304.38 93.7 304.29 94.44 304.19 95.14C303.685 97.9817 302.758 100.732 301.44 103.3C298.62 108.874 294.089 113.399 288.51 116.21C287.78 116.55 287.07 116.94 286.31 117.21L284.01 118.06C283.22 118.28 282.42 118.47 281.63 118.68C280.822 118.869 280.004 119.012 279.18 119.11C278.77 119.17 278.36 119.26 277.94 119.28L276.69 119.34C275.852 119.408 275.011 119.432 274.17 119.41C272.469 119.359 270.776 119.159 269.11 118.81C266.25 118.222 263.493 117.211 260.93 115.81H261.17L251.32 120.5L250.87 120.71L250.96 120.22C251.667 116.493 252.353 112.87 253.02 109.35L253.08 109.56C250.013 106.155 247.783 102.082 246.568 97.6635C245.353 93.2452 245.186 88.6042 246.08 84.11C246.819 80.3074 248.315 76.6923 250.48 73.48C252.33 70.7298 254.629 68.3095 257.28 66.32C258.417 65.4614 259.609 64.6797 260.85 63.98C261.44 63.66 262.04 63.41 262.61 63.13C263.148 62.8422 263.71 62.6013 264.29 62.41C265.302 62.0038 266.341 61.6697 267.4 61.41C268.289 61.2072 269.191 61.0702 270.1 61C270.91 60.89 271.63 60.76 272.25 60.7L273.82 60.64H274.82H275.14C275.034 60.6504 274.927 60.6504 274.82 60.64L273.82 60.71L272.25 60.81C271.63 60.88 270.92 61.02 270.12 61.14C269.227 61.2798 268.345 61.4802 267.48 61.74C266.433 62.0057 265.404 62.3397 264.4 62.74C263.833 62.9431 263.282 63.187 262.75 63.47C262.19 63.75 261.59 64.01 261.01 64.34C259.785 65.0393 258.609 65.8211 257.49 66.68C254.885 68.6637 252.628 71.0664 250.81 73.79C248.697 76.9742 247.239 80.5468 246.52 84.3C245.66 88.7184 245.837 93.2761 247.038 97.6144C248.239 101.953 250.43 105.953 253.44 109.3L253.52 109.39V109.51C252.853 113.017 252.187 116.64 251.52 120.38L251.16 120.11L261.01 115.41L261.13 115.35L261.24 115.42C263.748 116.787 266.444 117.778 269.24 118.36C270.886 118.702 272.559 118.9 274.24 118.95C275.07 118.95 275.9 118.95 276.72 118.89L277.95 118.82C278.36 118.82 278.76 118.71 279.17 118.66C279.977 118.561 280.778 118.42 281.57 118.24C282.36 118.03 283.14 117.84 283.92 117.62L286.18 116.8C286.92 116.51 287.62 116.12 288.34 115.8C291.107 114.373 293.64 112.532 295.85 110.34C297.94 108.207 299.7 105.774 301.07 103.12C302.37 100.603 303.289 97.9067 303.8 95.12C303.9 94.43 304.01 93.76 304.11 93.12C304.21 92.48 304.19 91.76 304.24 91.12C304.299 89.803 304.272 88.4836 304.16 87.17C303.75 82.7792 302.349 78.5387 300.062 74.7678C297.776 70.9969 294.664 67.7939 290.96 65.4C290.2 64.96 289.5 64.47 288.77 64.11L286.66 63.11C285.393 62.5827 284.093 62.1351 282.77 61.77L281.07 61.33L279.5 61L278.19 60.79C277.79 60.79 277.43 60.74 277.1 60.71L275.62 60.61C275.45 60.6087 275.279 60.5987 275.11 60.58Z" fill="#455A64"/>
<path d="M282.82 97.38C282.967 97.1614 283.141 96.963 283.34 96.79L284.84 95.28C286.12 94.02 287.9 92.28 289.84 90.4V90.66C287.84 88.8 286.05 87.11 284.76 85.87L283.25 84.4C283.054 84.2284 282.879 84.0337 282.73 83.82C282.953 83.9529 283.158 84.1143 283.34 84.3L285 85.65C286.33 86.84 288.14 88.5 290.14 90.36L290.28 90.49L290.14 90.61C288.14 92.5 286.35 94.2 285.03 95.41L283.45 96.84C283.259 97.0414 283.048 97.2223 282.82 97.38Z" fill="#FFC300"/>
<path d="M282.81 97.64C282.777 97.6375 282.745 97.6283 282.716 97.6128C282.686 97.5973 282.661 97.5759 282.64 97.55C282.45 97.35 282.57 97.22 283.16 96.62L284.66 95.11C285.92 93.86 287.61 92.23 289.43 90.49C287.62 88.81 285.95 87.23 284.68 86.01L283.17 84.53C282.57 83.93 282.45 83.81 282.64 83.61C282.83 83.41 282.97 83.53 283.64 84.07L285.22 85.46C286.6 86.7 288.43 88.37 290.37 90.18L290.51 90.3C290.535 90.323 290.555 90.3509 290.569 90.3818C290.582 90.4127 290.59 90.4462 290.59 90.48C290.59 90.5514 290.561 90.6197 290.51 90.67L290.38 90.8C288.43 92.65 286.62 94.36 285.22 95.65L283.64 97.07C283.15 97.47 283 97.64 282.81 97.64Z" fill="#FFC300"/>
<path d="M267.41 83.78C267.256 83.9928 267.082 84.1904 266.89 84.37L265.39 85.87C264.11 87.14 262.33 88.87 260.39 90.75H260.34V90.49C262.34 92.35 264.13 94.04 265.42 95.27L266.92 96.75C267.117 96.9237 267.295 97.1181 267.45 97.33C267.228 97.1907 267.021 97.0299 266.83 96.85C266.4 96.47 265.83 96.01 265.25 95.45C263.92 94.26 262.1 92.6 260.1 90.75L259.97 90.62L260.1 90.49H260.15C262.15 88.6 263.94 86.9 265.26 85.68L266.83 84.26C267.004 84.0775 267.198 83.9163 267.41 83.78Z" fill="#FFC300"/>
<path d="M267.42 97.64C267.27 97.64 267.08 97.47 266.63 97.09L265 95.69C263.6 94.44 261.78 92.76 259.85 90.98L259.72 90.85C259.694 90.8278 259.674 90.8002 259.66 90.769C259.646 90.7379 259.639 90.7041 259.64 90.67C259.639 90.6368 259.644 90.6037 259.656 90.5727C259.668 90.5417 259.687 90.5136 259.71 90.49L259.85 90.36C261.85 88.48 263.64 86.77 265.01 85.51L266.59 84.08C267.22 83.52 267.36 83.41 267.59 83.61C267.82 83.81 267.65 83.93 267.07 84.54L265.57 86.05C264.3 87.3 262.62 88.93 260.8 90.66C262.61 92.34 264.28 93.92 265.55 95.14L267.06 96.62C267.65 97.22 267.78 97.35 267.59 97.55C267.57 97.576 267.544 97.5973 267.515 97.6128C267.485 97.6283 267.453 97.6376 267.42 97.64Z" fill="#FFC300"/>
<path d="M271.36 100.58C271.27 100.58 272.89 96 274.98 90.42C277.07 84.84 278.83 80.35 278.92 80.42C279.01 80.49 277.39 85 275.3 90.55C273.21 96.1 271.45 100.61 271.36 100.58Z" fill="#FFC300"/>
<path d="M271.4 100.85C271.36 100.859 271.32 100.859 271.28 100.85C270.99 100.75 270.88 100.7 274.74 90.38C278.49 80.38 278.74 80.24 278.81 80.2C278.871 80.175 278.939 80.175 279 80.2C279.29 80.31 279.4 80.35 275.54 90.68C274.54 93.38 273.54 95.91 272.82 97.81C271.77 100.43 271.6 100.85 271.4 100.85Z" fill="#FFC300"/>
<path d="M425.16 190.06H338.5V225.26H425.16V190.06Z" fill="white"/>
<path d="M425.16 225.26C425.16 225.26 425.16 225.05 425.16 224.63C425.16 224.21 425.16 223.63 425.16 222.81C425.16 221.2 425.16 218.81 425.16 215.81C425.16 209.74 425.16 200.95 425.11 190.07L425.2 190.17H338.55L338.69 190.03V225.23L338.55 225.1L400.69 225.16H418.69H418.75H400.75L338.52 225.22H338.39V189.92H338.53L425.18 189.97H425.28V190.06C425.28 200.96 425.28 209.77 425.23 215.86C425.23 218.86 425.23 221.24 425.23 222.86C425.23 223.65 425.23 224.26 425.23 224.67C425.23 225.08 425.16 225.26 425.16 225.26Z" fill="#FFC300"/>
<path d="M366.8 198.12H345.87V219.05H366.8V198.12Z" fill="#FFC300"/>
<path d="M419.17 206.14C419.17 206.21 408.4 206.28 395.11 206.28C381.82 206.28 371.05 206.21 371.05 206.14C371.05 206.07 381.82 206 395.11 206C408.4 206 419.17 206.06 419.17 206.14Z" fill="#FFC300"/>
<path d="M419.17 210.4C419.17 210.48 408.4 210.54 395.11 210.54C381.82 210.54 371.05 210.48 371.05 210.4C371.05 210.32 381.82 210.27 395.11 210.27C408.4 210.27 419.17 210.33 419.17 210.4Z" fill="#FFC300"/>
<path d="M402 214.67C401.894 214.683 401.786 214.683 401.68 214.67H400.78H397.46H386.51H375.51H372.19H371.29C371.184 214.683 371.076 214.683 370.97 214.67H371.29H372.19H375.51H386.51H397.46H400.78H401.68H402Z" fill="#FFC300"/>
<path d="M401.12 119.03H309.69V179.36H401.12V119.03Z" fill="#FAFAFA"/>
<path d="M401.12 179.36C401.12 179.36 401.12 178.98 401.12 178.26C401.12 177.54 401.12 176.46 401.12 175.07C401.12 172.27 401.12 168.18 401.07 162.94C401.07 152.45 401.01 137.4 400.96 119.03L401.17 119.24L309.75 119.29L310 119C310 140.47 310 160.89 310 179.33L309.76 179.09L375.58 179.21L394.42 179.28H399.42H400.72H401.17H400.75H399.47H394.47L375.69 179.34L309.69 179.46H309.45V179.22C309.45 160.78 309.45 140.36 309.45 118.89V118.63H309.72L401.14 118.69H401.35V118.89C401.35 137.31 401.27 152.41 401.25 162.89C401.25 168.11 401.25 172.19 401.19 174.98C401.19 176.35 401.19 177.41 401.19 178.13C401.19 178.85 401.12 179.36 401.12 179.36Z" fill="#263238"/>
<path d="M401.54 125.19C401.54 125.33 381.12 125.45 355.93 125.45C330.74 125.45 310.32 125.33 310.32 125.19C310.32 125.05 330.74 124.93 355.93 124.93C381.12 124.93 401.54 125 401.54 125.19Z" fill="#263238"/>
<path d="M346.78 133.88H317.65V172.28H346.78V133.88Z" fill="#FFC300"/>
<path d="M393.16 135.67C393.16 135.81 384.02 135.93 372.74 135.93C361.46 135.93 352.32 135.81 352.32 135.67C352.32 135.53 361.46 135.41 372.74 135.41C384.02 135.41 393.16 135.52 393.16 135.67Z" fill="#FFC300"/>
<path d="M393.16 140.47C393.16 140.61 384.02 140.73 372.74 140.73C361.46 140.73 352.32 140.61 352.32 140.47C352.32 140.33 361.46 140.21 372.74 140.21C384.02 140.21 393.16 140.33 393.16 140.47Z" fill="#FFC300"/>
<path d="M393.16 145.28C393.16 145.42 384.02 145.54 372.74 145.54C361.46 145.54 352.32 145.42 352.32 145.28C352.32 145.14 361.46 145.02 372.74 145.02C384.02 145.02 393.16 145.13 393.16 145.28Z" fill="#FFC300"/>
<path d="M393.16 150.08C393.16 150.23 384.02 150.34 372.74 150.34C361.46 150.34 352.32 150.23 352.32 150.08C352.32 149.93 361.46 149.82 372.74 149.82C384.02 149.82 393.16 149.94 393.16 150.08Z" fill="#FFC300"/>
<path d="M391.9 154.06H375.48V172.27H391.9V154.06Z" fill="#FFC300"/>
<path d="M372.79 154.89C369.463 155.148 366.126 155.235 362.79 155.15C359.454 155.235 356.117 155.149 352.79 154.89C356.116 154.625 359.454 154.538 362.79 154.63C366.126 154.539 369.464 154.626 372.79 154.89Z" fill="#FFC300"/>
<path d="M372.79 159.69C369.464 159.954 366.126 160.041 362.79 159.95C359.454 160.041 356.116 159.955 352.79 159.69C356.117 159.431 359.454 159.345 362.79 159.43C366.126 159.345 369.463 159.432 372.79 159.69Z" fill="#FFC300"/>
<path d="M372.79 165.26C369.464 165.524 366.126 165.611 362.79 165.52C359.454 165.612 356.116 165.525 352.79 165.26C356.117 165.001 359.454 164.915 362.79 165C366.126 164.915 369.463 165.002 372.79 165.26Z" fill="#FFC300"/>
<path d="M372.27 170.94C368.944 171.205 365.606 171.291 362.27 171.2C358.934 171.291 355.596 171.204 352.27 170.94C355.597 170.682 358.934 170.595 362.27 170.68C365.606 170.595 368.943 170.681 372.27 170.94Z" fill="#FFC300"/>
<path d="M163.08 150.34C163.072 150.207 163.072 150.073 163.08 149.94C163.08 149.66 163.08 149.3 163.08 148.84C163.08 147.84 163.08 146.45 163.08 144.68C163.08 141.1 163.02 136.02 162.98 129.91L163.17 130.11H137.68C137.63 130.11 138.12 129.67 137.91 129.88V135.31C137.91 137.1 137.91 138.85 137.91 140.56C137.91 143.99 137.91 147.25 137.91 150.29L137.7 150.08L156.06 150.18L161.29 150.24H162.69H163.19H162.74H161.38L156.19 150.29L137.7 150.39H137.49V150.19C137.49 147.19 137.49 143.89 137.49 140.46C137.49 138.75 137.49 137 137.49 135.21V129.78C137.28 129.98 137.77 129.49 137.72 129.54H163.21H163.4V129.73C163.4 135.89 163.33 141.01 163.3 144.63C163.3 146.37 163.3 147.75 163.3 148.74C163.3 149.18 163.3 149.53 163.3 149.81C163.248 149.995 163.175 150.173 163.08 150.34Z" fill="#FFC300"/>
<path d="M159.82 142.89C159.256 142.467 158.724 142.003 158.23 141.5C157.23 140.6 155.87 139.29 154.23 137.73H154.53L150.53 142.36L150.37 142.54L150.22 142.71L150.05 142.57L147.55 140.5H147.84C145.64 142.5 143.71 144.16 142.33 145.35L140.7 146.73C140.513 146.912 140.301 147.067 140.07 147.19C140.218 146.978 140.393 146.787 140.59 146.62L142.14 145.14C143.47 143.89 145.35 142.14 147.54 140.14L147.68 140.01L147.83 140.13L150.34 142.19H150.02L150.19 142L154.27 137.41L154.41 137.25L154.57 137.4C156.17 138.99 157.51 140.34 158.44 141.3C158.943 141.791 159.405 142.323 159.82 142.89Z" fill="#FFC300"/>
<path d="M146.46 135.87C146.46 135.87 146.32 135.72 146.06 135.49C145.702 135.167 145.25 134.967 144.77 134.92C144.426 134.89 144.08 134.943 143.762 135.075C143.443 135.208 143.161 135.415 142.94 135.68C142.673 136.002 142.511 136.398 142.475 136.815C142.44 137.232 142.533 137.65 142.742 138.013C142.951 138.375 143.266 138.665 143.645 138.843C144.023 139.022 144.447 139.08 144.86 139.01C145.201 138.954 145.524 138.815 145.799 138.606C146.074 138.397 146.294 138.124 146.44 137.81C146.638 137.371 146.69 136.881 146.59 136.41C146.533 136.234 146.49 136.053 146.46 135.87C146.46 135.87 146.63 136.01 146.76 136.36C146.952 136.866 146.952 137.424 146.76 137.93C146.615 138.314 146.373 138.654 146.057 138.917C145.742 139.18 145.364 139.356 144.96 139.43C144.462 139.522 143.948 139.457 143.488 139.246C143.028 139.034 142.644 138.686 142.389 138.249C142.134 137.811 142.021 137.306 142.064 136.801C142.107 136.297 142.305 135.818 142.63 135.43C142.897 135.119 143.24 134.881 143.625 134.739C144.01 134.598 144.425 134.557 144.83 134.62C145.366 134.699 145.857 134.969 146.21 135.38C146.43 135.66 146.48 135.86 146.46 135.87Z" fill="#FFC300"/>
<path d="M134.63 144.77C134.63 144.77 134.48 144.62 134.23 144.39C133.871 144.068 133.419 143.869 132.94 143.82C132.596 143.79 132.25 143.843 131.932 143.975C131.613 144.108 131.331 144.315 131.11 144.58C130.839 144.902 130.674 145.299 130.636 145.718C130.599 146.137 130.691 146.557 130.901 146.922C131.11 147.287 131.427 147.578 131.808 147.757C132.189 147.935 132.616 147.992 133.03 147.92C133.37 147.861 133.691 147.721 133.965 147.51C134.239 147.299 134.457 147.024 134.6 146.71C134.8 146.272 134.857 145.782 134.76 145.31C134.69 144.97 134.59 144.79 134.63 144.77C134.67 144.75 134.8 144.91 134.93 145.26C135.121 145.769 135.121 146.331 134.93 146.84C134.783 147.222 134.54 147.559 134.224 147.82C133.909 148.081 133.532 148.256 133.13 148.33C132.633 148.419 132.12 148.353 131.662 148.14C131.204 147.928 130.822 147.58 130.569 147.143C130.315 146.706 130.203 146.201 130.246 145.698C130.289 145.195 130.486 144.717 130.81 144.33C131.077 144.019 131.42 143.781 131.805 143.639C132.19 143.498 132.605 143.457 133.01 143.52C133.548 143.6 134.039 143.874 134.39 144.29C134.59 144.56 134.65 144.76 134.63 144.77Z" fill="#FFC300"/>
<path d="M150.34 151.24C150.353 151.383 150.353 151.527 150.34 151.67C150.34 152 150.34 152.42 150.34 152.93C150.34 154.09 150.34 155.69 150.41 157.68V157.82H150.27C145 157.82 136.71 157.9 127.41 157.9H126.01V157.67C126.01 150.42 126.01 143.85 126.07 138.9V138.73H126.24L133.08 138.8L134.94 138.85C135.156 138.822 135.374 138.822 135.59 138.85C135.374 138.867 135.156 138.867 134.94 138.85L133.08 138.9L126.24 138.97L126.41 138.81C126.41 143.81 126.41 150.33 126.47 157.58L126.24 157.35H127.41C136.71 157.35 145 157.35 150.27 157.44L150.12 157.58C150.12 155.58 150.17 153.99 150.19 152.83C150.19 152.32 150.19 151.9 150.19 151.57C150.224 151.453 150.275 151.342 150.34 151.24Z" fill="#FFC300"/>
<path d="M136.23 149.08C135.082 150.33 133.849 151.5 132.54 152.58C131.332 153.769 130.042 154.871 128.68 155.88C129.724 154.535 130.914 153.311 132.23 152.23C133.443 151.035 134.784 149.979 136.23 149.08Z" fill="#FFC300"/>
<path d="M141.37 154.21C141.29 154.3 140.6 153.86 139.94 153.11C139.28 152.36 138.94 151.62 139.02 151.56C139.1 151.5 139.64 152.09 140.28 152.81C140.92 153.53 141.46 154.11 141.37 154.21Z" fill="#FFC300"/>
<path d="M171.3 168.93C171.3 168.93 171.3 168.61 171.3 167.99C171.3 167.37 171.3 166.45 171.3 165.26C171.3 162.86 171.3 159.35 171.3 154.85C171.3 145.85 171.24 132.85 171.2 116.99L171.38 117.17H84.3L84.53 116.94C84.53 135.34 84.53 152.94 84.53 168.88L84.32 168.67L146.95 168.77L164.95 168.83H169.75H171.42H171.02H169.8H165.05L147 169L84.23 169.11H84V168.89C84 152.89 84 135.35 84 116.95V116.72H84.24H171.32H171.5V117C171.5 132.94 171.43 145.94 171.4 155C171.4 159.48 171.4 163 171.4 165.37C171.4 166.55 171.4 167.45 171.4 168.07C171.4 168.69 171.3 168.93 171.3 168.93Z" fill="#FFC300"/>
<path d="M117.8 129.15H91.27V131.09H117.8V129.15Z" fill="#FFC300"/>
<path d="M116.72 138.74C116.72 138.86 110.94 138.97 103.8 138.97C96.6601 138.97 90.8701 138.86 90.8701 138.74C90.8701 138.62 96.6601 138.51 103.8 138.51C110.94 138.51 116.72 138.61 116.72 138.74Z" fill="#FFC300"/>
<path d="M116.72 143C116.72 143.13 110.94 143.23 103.8 143.23C96.6601 143.23 90.8701 143.13 90.8701 143C90.8701 142.87 96.6601 142.77 103.8 142.77C110.94 142.77 116.72 142.91 116.72 143Z" fill="#FFC300"/>
<path d="M116.72 147.33C116.72 147.46 110.94 147.56 103.8 147.56C96.6601 147.56 90.8701 147.46 90.8701 147.33C90.8701 147.2 96.6601 147.1 103.8 147.1C110.94 147.1 116.72 147.2 116.72 147.33Z" fill="#FFC300"/>
<path d="M116.72 151.63C116.72 151.76 110.94 151.86 103.8 151.86C96.6601 151.86 90.8701 151.76 90.8701 151.63C90.8701 151.5 96.6601 151.4 103.8 151.4C110.94 151.4 116.72 151.5 116.72 151.63Z" fill="#FFC300"/>
<path d="M102.51 155.84C100.579 156.071 98.6331 156.148 96.6901 156.07C94.7471 156.148 92.8009 156.071 90.8701 155.84C92.8009 155.609 94.7471 155.532 96.6901 155.61C98.6331 155.532 100.579 155.609 102.51 155.84Z" fill="#FFC300"/>
<path d="M358.22 250.61C358.22 250.69 346.91 250.75 332.96 250.75C319.01 250.75 307.69 250.69 307.69 250.61C307.69 250.53 319 250.46 332.96 250.46C346.92 250.46 358.22 250.53 358.22 250.61Z" fill="#FFC300"/>
<path d="M358.22 255.09C358.22 255.17 346.91 255.23 332.96 255.23C319.01 255.23 307.69 255.17 307.69 255.09C307.69 255.01 319 254.94 332.96 254.94C346.92 254.94 358.22 255 358.22 255.09Z" fill="#FFC300"/>
<path d="M340.22 259.56H339.89H338.94L335.45 259.61H323.96H312.46L308.97 259.56H307.97H307.64C307.75 259.545 307.861 259.545 307.97 259.56H308.97L312.46 259.51H323.96H335.45L338.94 259.56H339.89C340 259.545 340.111 259.545 340.22 259.56Z" fill="#FFC300"/>
<path d="M362.9 271.24C362.9 271.12 363.27 271.03 363.71 271.03C364.15 271.03 364.53 271.12 364.53 271.24C364.53 271.36 364.16 271.45 363.71 271.45C363.26 271.45 362.9 271.35 362.9 271.24Z" fill="#FFC300"/>
<path d="M359.66 271.24C359.66 271.12 360.02 271.03 360.47 271.03C360.92 271.03 361.28 271.12 361.28 271.24C361.28 271.36 360.92 271.45 360.47 271.45C360.02 271.45 359.66 271.35 359.66 271.24Z" fill="#FFC300"/>
<path d="M356.41 271.24C356.41 271.12 356.78 271.03 357.22 271.03C357.66 271.03 358.03 271.12 358.03 271.24C358.03 271.36 357.67 271.45 357.22 271.45C356.77 271.45 356.41 271.35 356.41 271.24Z" fill="#FFC300"/>
<path d="M353.17 271.24C353.17 271.12 353.53 271.03 353.98 271.03C354.43 271.03 354.79 271.12 354.79 271.24C354.79 271.36 354.43 271.45 353.98 271.45C353.53 271.45 353.17 271.35 353.17 271.24Z" fill="#FFC300"/>
<path d="M349.92 271.24C349.92 271.12 350.28 271.03 350.73 271.03C351.18 271.03 351.54 271.12 351.54 271.24C351.54 271.36 351.18 271.45 350.73 271.45C350.28 271.45 349.92 271.35 349.92 271.24Z" fill="#FFC300"/>
<path d="M346.68 271.24C346.68 271.12 347.04 271.03 347.49 271.03C347.94 271.03 348.3 271.12 348.3 271.24C348.3 271.36 347.94 271.45 347.49 271.45C347.04 271.45 346.68 271.35 346.68 271.24Z" fill="#FFC300"/>
<path d="M343.43 271.24C343.43 271.12 343.79 271.03 344.24 271.03C344.69 271.03 345.05 271.12 345.05 271.24C345.05 271.36 344.69 271.45 344.24 271.45C343.79 271.45 343.43 271.35 343.43 271.24Z" fill="#FFC300"/>
<path d="M340.19 271.24C340.19 271.12 340.55 271.03 341 271.03C341.45 271.03 341.81 271.12 341.81 271.24C341.81 271.36 341.45 271.45 341 271.45C340.55 271.45 340.19 271.35 340.19 271.24Z" fill="#FFC300"/>
<path d="M336.94 271.24C336.94 271.12 337.3 271.03 337.75 271.03C338.2 271.03 338.56 271.12 338.56 271.24C338.56 271.36 338.2 271.45 337.75 271.45C337.3 271.45 336.94 271.35 336.94 271.24Z" fill="#FFC300"/>
<path d="M333.7 271.24C333.7 271.12 334.06 271.03 334.51 271.03C334.96 271.03 335.32 271.12 335.32 271.24C335.32 271.36 334.95 271.45 334.51 271.45C334.07 271.45 333.7 271.35 333.7 271.24Z" fill="#FFC300"/>
<path d="M330.45 271.24C330.45 271.12 330.81 271.03 331.26 271.03C331.71 271.03 332.07 271.12 332.07 271.24C332.07 271.36 331.71 271.45 331.26 271.45C330.81 271.45 330.45 271.35 330.45 271.24Z" fill="#FFC300"/>
<path d="M327.2 271.24C327.2 271.12 327.57 271.03 328.02 271.03C328.47 271.03 328.83 271.12 328.83 271.24C328.83 271.36 328.46 271.45 328.02 271.45C327.58 271.45 327.2 271.35 327.2 271.24Z" fill="#FFC300"/>
<path d="M324 271.24C324 271.12 324.36 271.03 324.81 271.03C325.26 271.03 325.62 271.12 325.62 271.24C325.62 271.36 325.26 271.45 324.81 271.45C324.36 271.45 324 271.35 324 271.24Z" fill="#FFC300"/>
<path d="M320.71 271.24C320.71 271.12 321.08 271.03 321.53 271.03C321.98 271.03 322.34 271.12 322.34 271.24C322.34 271.36 321.97 271.45 321.53 271.45C321.09 271.45 320.71 271.35 320.71 271.24Z" fill="#FFC300"/>
<path d="M317.47 271.24C317.47 271.12 317.83 271.03 318.28 271.03C318.73 271.03 319.09 271.12 319.09 271.24C319.09 271.36 318.73 271.45 318.28 271.45C317.83 271.45 317.47 271.35 317.47 271.24Z" fill="#FFC300"/>
<path d="M314.22 271.24C314.22 271.12 314.59 271.03 315.04 271.03C315.49 271.03 315.85 271.12 315.85 271.24C315.85 271.36 315.48 271.45 315.04 271.45C314.6 271.45 314.22 271.35 314.22 271.24Z" fill="#FFC300"/>
<path d="M311 271.24C311 271.12 311.36 271.03 311.81 271.03C312.26 271.03 312.62 271.12 312.62 271.24C312.62 271.36 312.26 271.45 311.81 271.45C311.36 271.45 311 271.35 311 271.24Z" fill="#FFC300"/>
<path d="M307.73 271.24C307.73 271.12 308.1 271.03 308.54 271.03C308.98 271.03 309.36 271.12 309.36 271.24C309.36 271.36 308.99 271.45 308.54 271.45C308.09 271.45 307.73 271.35 307.73 271.24Z" fill="#FFC300"/>
<path d="M304.49 271.24C304.49 271.12 304.85 271.03 305.3 271.03C305.75 271.03 306.11 271.12 306.11 271.24C306.11 271.36 305.75 271.45 305.3 271.45C304.85 271.45 304.49 271.35 304.49 271.24Z" fill="#FFC300"/>
<path d="M301.24 271.24C301.24 271.12 301.61 271.03 302.05 271.03C302.49 271.03 302.87 271.12 302.87 271.24C302.87 271.36 302.5 271.45 302.05 271.45C301.6 271.45 301.24 271.35 301.24 271.24Z" fill="#FFC300"/>
<path d="M298 271.24C298 271.12 298.36 271.03 298.81 271.03C299.26 271.03 299.62 271.12 299.62 271.24C299.62 271.36 299.26 271.45 298.81 271.45C298.36 271.45 298 271.35 298 271.24Z" fill="#FFC300"/>
<path d="M294.75 271.24C294.75 271.12 295.12 271.03 295.56 271.03C296 271.03 296.38 271.12 296.38 271.24C296.38 271.36 296.01 271.45 295.56 271.45C295.11 271.45 294.75 271.35 294.75 271.24Z" fill="#FFC300"/>
<path d="M291.51 271.24C291.51 271.12 291.87 271.03 292.32 271.03C292.77 271.03 293.13 271.12 293.13 271.24C293.13 271.36 292.77 271.45 292.32 271.45C291.87 271.45 291.51 271.35 291.51 271.24Z" fill="#FFC300"/>
<path d="M288.26 271.24C288.26 271.12 288.63 271.03 289.07 271.03C289.51 271.03 289.88 271.12 289.88 271.24C289.88 271.36 289.52 271.45 289.07 271.45C288.62 271.45 288.26 271.35 288.26 271.24Z" fill="#FFC300"/>
<path d="M285 271.24C285 271.12 285.36 271.03 285.81 271.03C286.26 271.03 286.62 271.12 286.62 271.24C286.62 271.36 286.26 271.45 285.81 271.45C285.36 271.45 285 271.35 285 271.24Z" fill="#FFC300"/>
<path d="M281.77 271.24C281.77 271.12 282.13 271.03 282.58 271.03C283.03 271.03 283.39 271.12 283.39 271.24C283.39 271.36 283.03 271.45 282.58 271.45C282.13 271.45 281.77 271.35 281.77 271.24Z" fill="#FFC300"/>
<path d="M278.53 271.24C278.53 271.12 278.89 271.03 279.34 271.03C279.79 271.03 280.15 271.12 280.15 271.24C280.15 271.36 279.79 271.45 279.34 271.45C278.89 271.45 278.53 271.35 278.53 271.24Z" fill="#FFC300"/>
<path d="M275.28 271.24C275.28 271.12 275.64 271.03 276.09 271.03C276.54 271.03 276.9 271.12 276.9 271.24C276.9 271.36 276.54 271.45 276.09 271.45C275.64 271.45 275.28 271.35 275.28 271.24Z" fill="#FFC300"/>
<path d="M273.51 269.76C273.63 269.76 273.73 270.12 273.73 270.57C273.736 270.797 273.702 271.024 273.63 271.24L273.51 271.12C273.61 271.12 273.66 271.16 273.66 271.24C273.66 271.24 273.61 271.32 273.51 271.36H273.45L273.39 271.22C273.326 271.002 273.296 270.777 273.3 270.55C273.3 270.12 273.4 269.76 273.51 269.76Z" fill="#FFC300"/>
<path d="M273.51 268.13C273.626 268.13 273.72 267.767 273.72 267.32C273.72 266.873 273.626 266.51 273.51 266.51C273.394 266.51 273.3 266.873 273.3 267.32C273.3 267.767 273.394 268.13 273.51 268.13Z" fill="#FFC300"/>
<path d="M273.51 264.89C273.626 264.89 273.72 264.527 273.72 264.08C273.72 263.633 273.626 263.27 273.51 263.27C273.394 263.27 273.3 263.633 273.3 264.08C273.3 264.527 273.394 264.89 273.51 264.89Z" fill="#FFC300"/>
<path d="M273.51 261.64C273.626 261.64 273.72 261.277 273.72 260.83C273.72 260.383 273.626 260.02 273.51 260.02C273.394 260.02 273.3 260.383 273.3 260.83C273.3 261.277 273.394 261.64 273.51 261.64Z" fill="#FFC300"/>
<path d="M273.51 258.4C273.626 258.4 273.72 258.037 273.72 257.59C273.72 257.143 273.626 256.78 273.51 256.78C273.394 256.78 273.3 257.143 273.3 257.59C273.3 258.037 273.394 258.4 273.51 258.4Z" fill="#FFC300"/>
<path d="M273.51 255.15C273.626 255.15 273.72 254.787 273.72 254.34C273.72 253.893 273.626 253.53 273.51 253.53C273.394 253.53 273.3 253.893 273.3 254.34C273.3 254.787 273.394 255.15 273.51 255.15Z" fill="#FFC300"/>
<path d="M273.51 251.91C273.626 251.91 273.72 251.547 273.72 251.1C273.72 250.653 273.626 250.29 273.51 250.29C273.394 250.29 273.3 250.653 273.3 251.1C273.3 251.547 273.394 251.91 273.51 251.91Z" fill="#FFC300"/>
<path d="M273.51 247C273.63 247 273.73 247.37 273.73 247.81C273.73 248.25 273.63 248.62 273.51 248.62C273.39 248.62 273.3 248.26 273.3 247.81C273.3 247.36 273.4 247 273.51 247Z" fill="#FFC300"/>
<path d="M273.51 245.42C273.626 245.42 273.72 245.057 273.72 244.61C273.72 244.163 273.626 243.8 273.51 243.8C273.394 243.8 273.3 244.163 273.3 244.61C273.3 245.057 273.394 245.42 273.51 245.42Z" fill="#FFC300"/>
<path d="M273.51 242.17C273.626 242.17 273.72 241.807 273.72 241.36C273.72 240.913 273.626 240.55 273.51 240.55C273.394 240.55 273.3 240.913 273.3 241.36C273.3 241.807 273.394 242.17 273.51 242.17Z" fill="#FFC300"/>
<path d="M273.51 238.93C273.626 238.93 273.72 238.567 273.72 238.12C273.72 237.673 273.626 237.31 273.51 237.31C273.394 237.31 273.3 237.673 273.3 238.12C273.3 238.567 273.394 238.93 273.51 238.93Z" fill="#FFC300"/>
<path d="M274.22 234.77C274.22 234.88 273.91 234.96 273.51 234.98L273.72 234.77V234.87C273.72 235.32 273.62 235.68 273.5 235.68C273.38 235.68 273.29 235.32 273.29 234.87V234.55H273.49C273.91 234.57 274.22 234.66 274.22 234.77Z" fill="#FFC300"/>
<path d="M277.47 234.77C277.47 234.88 277.1 234.98 276.66 234.98C276.22 234.98 275.84 234.88 275.84 234.77C275.84 234.66 276.21 234.56 276.66 234.56C277.11 234.56 277.47 234.65 277.47 234.77Z" fill="#FFC300"/>
<path d="M280.71 234.77C280.71 234.88 280.35 234.98 279.9 234.98C279.45 234.98 279.09 234.88 279.09 234.77C279.09 234.66 279.45 234.56 279.9 234.56C280.35 234.56 280.71 234.65 280.71 234.77Z" fill="#FFC300"/>
<path d="M284 234.77C284 234.88 283.63 234.98 283.19 234.98C282.75 234.98 282.37 234.88 282.37 234.77C282.37 234.66 282.74 234.56 283.19 234.56C283.64 234.56 284 234.65 284 234.77Z" fill="#FFC300"/>
<path d="M287.2 234.77C287.2 234.88 286.84 234.98 286.39 234.98C285.94 234.98 285.58 234.88 285.58 234.77C285.58 234.66 285.94 234.56 286.39 234.56C286.84 234.56 287.2 234.65 287.2 234.77Z" fill="#FFC300"/>
<path d="M290.45 234.77C290.45 234.88 290.08 234.98 289.64 234.98C289.2 234.98 288.82 234.88 288.82 234.77C288.82 234.66 289.19 234.56 289.64 234.56C290.09 234.56 290.45 234.65 290.45 234.77Z" fill="#FFC300"/>
<path d="M293.69 234.77C293.69 234.88 293.33 234.98 292.88 234.98C292.43 234.98 292.07 234.88 292.07 234.77C292.07 234.66 292.43 234.56 292.88 234.56C293.33 234.56 293.69 234.65 293.69 234.77Z" fill="#FFC300"/>
<path d="M296.94 234.77C296.94 234.88 296.57 234.98 296.13 234.98C295.69 234.98 295.32 234.88 295.32 234.77C295.32 234.66 295.68 234.56 296.13 234.56C296.58 234.56 296.94 234.65 296.94 234.77Z" fill="#FFC300"/>
<path d="M300.18 234.77C300.18 234.88 299.82 234.98 299.37 234.98C298.92 234.98 298.56 234.88 298.56 234.77C298.56 234.66 298.92 234.56 299.37 234.56C299.82 234.56 300.18 234.65 300.18 234.77Z" fill="#FFC300"/>
<path d="M303.43 234.77C303.43 234.88 303.07 234.98 302.62 234.98C302.17 234.98 301.81 234.88 301.81 234.77C301.81 234.66 302.17 234.56 302.62 234.56C303.07 234.56 303.43 234.65 303.43 234.77Z" fill="#FFC300"/>
<path d="M306.67 234.77C306.67 234.88 306.31 234.98 305.86 234.98C305.41 234.98 305.05 234.88 305.05 234.77C305.05 234.66 305.41 234.56 305.86 234.56C306.31 234.56 306.67 234.65 306.67 234.77Z" fill="#FFC300"/>
<path d="M309.92 234.77C309.92 234.88 309.56 234.98 309.11 234.98C308.66 234.98 308.3 234.88 308.3 234.77C308.3 234.66 308.66 234.56 309.11 234.56C309.56 234.56 309.92 234.65 309.92 234.77Z" fill="#FFC300"/>
<path d="M313.16 234.77C313.16 234.88 312.8 234.98 312.35 234.98C311.9 234.98 311.54 234.88 311.54 234.77C311.54 234.66 311.9 234.56 312.35 234.56C312.8 234.56 313.16 234.65 313.16 234.77Z" fill="#FFC300"/>
<path d="M316.41 234.77C316.41 234.88 316.05 234.98 315.6 234.98C315.15 234.98 314.79 234.88 314.79 234.77C314.79 234.66 315.15 234.56 315.6 234.56C316.05 234.56 316.41 234.65 316.41 234.77Z" fill="#FFC300"/>
<path d="M319.65 234.77C319.65 234.88 319.29 234.98 318.84 234.98C318.39 234.98 318.03 234.88 318.03 234.77C318.03 234.66 318.4 234.56 318.84 234.56C319.28 234.56 319.65 234.65 319.65 234.77Z" fill="#FFC300"/>
<path d="M322.9 234.77C322.9 234.88 322.54 234.98 322.09 234.98C321.64 234.98 321.28 234.88 321.28 234.77C321.28 234.66 321.64 234.56 322.09 234.56C322.54 234.56 322.9 234.65 322.9 234.77Z" fill="#FFC300"/>
<path d="M326.14 234.77C326.14 234.88 325.78 234.98 325.33 234.98C324.88 234.98 324.52 234.88 324.52 234.77C324.52 234.66 324.89 234.56 325.33 234.56C325.77 234.56 326.14 234.65 326.14 234.77Z" fill="#FFC300"/>
<path d="M329.39 234.77C329.39 234.88 329.03 234.98 328.58 234.98C328.13 234.98 327.77 234.88 327.77 234.77C327.77 234.66 328.13 234.56 328.58 234.56C329.03 234.56 329.39 234.65 329.39 234.77Z" fill="#FFC300"/>
<path d="M332.64 234.77C332.64 234.88 332.27 234.98 331.82 234.98C331.37 234.98 331.01 234.88 331.01 234.77C331.01 234.66 331.38 234.56 331.82 234.56C332.26 234.56 332.64 234.65 332.64 234.77Z" fill="#FFC300"/>
<path d="M335.88 234.77C335.88 234.88 335.52 234.98 335.07 234.98C334.62 234.98 334.26 234.88 334.26 234.77C334.26 234.66 334.62 234.56 335.07 234.56C335.52 234.56 335.88 234.65 335.88 234.77Z" fill="#FFC300"/>
<path d="M339.13 234.77C339.13 234.88 338.76 234.98 338.31 234.98C337.86 234.98 337.5 234.88 337.5 234.77C337.5 234.66 337.87 234.56 338.31 234.56C338.75 234.56 339.13 234.65 339.13 234.77Z" fill="#FFC300"/>
<path d="M342.37 234.77C342.37 234.88 342.01 234.98 341.56 234.98C341.11 234.98 340.75 234.88 340.75 234.77C340.75 234.66 341.11 234.56 341.56 234.56C342.01 234.56 342.37 234.65 342.37 234.77Z" fill="#FFC300"/>
<path d="M345.62 234.77C345.62 234.88 345.25 234.98 344.81 234.98C344.37 234.98 343.99 234.88 343.99 234.77C343.99 234.66 344.36 234.56 344.81 234.56C345.26 234.56 345.62 234.65 345.62 234.77Z" fill="#FFC300"/>
<path d="M348.86 234.77C348.86 234.88 348.5 234.98 348.05 234.98C347.6 234.98 347.24 234.88 347.24 234.77C347.24 234.66 347.6 234.56 348.05 234.56C348.5 234.56 348.86 234.65 348.86 234.77Z" fill="#FFC300"/>
<path d="M352.11 234.77C352.11 234.88 351.74 234.98 351.3 234.98C350.86 234.98 350.48 234.88 350.48 234.77C350.48 234.66 350.85 234.56 351.3 234.56C351.75 234.56 352.11 234.65 352.11 234.77Z" fill="#FFC300"/>
<path d="M355.35 234.77C355.35 234.88 354.99 234.98 354.54 234.98C354.09 234.98 353.73 234.88 353.73 234.77C353.73 234.66 354.09 234.56 354.54 234.56C354.99 234.56 355.35 234.65 355.35 234.77Z" fill="#FFC300"/>
<path d="M358.6 234.77C358.6 234.88 358.23 234.98 357.79 234.98C357.35 234.98 356.97 234.88 356.97 234.77C356.97 234.66 357.34 234.56 357.79 234.56C358.24 234.56 358.6 234.65 358.6 234.77Z" fill="#FFC300"/>
<path d="M361.84 234.77C361.84 234.88 361.48 234.98 361.03 234.98C360.58 234.98 360.22 234.88 360.22 234.77C360.22 234.66 360.58 234.56 361.03 234.56C361.48 234.56 361.84 234.65 361.84 234.77Z" fill="#FFC300"/>
<path d="M364.53 235.33C364.43 235.33 364.35 235.1 364.32 234.77L364.52 234.97H364.28C363.83 234.97 363.47 234.87 363.47 234.76C363.47 234.65 363.83 234.55 364.28 234.55H364.52H364.74V234.73C364.7 235.1 364.62 235.33 364.53 235.33Z" fill="#FFC300"/>
<path d="M364.53 238.58C364.41 238.58 364.31 238.21 364.31 237.76C364.31 237.31 364.41 236.95 364.53 236.95C364.65 236.95 364.74 237.32 364.74 237.76C364.74 238.2 364.64 238.58 364.53 238.58Z" fill="#FFC300"/>
<path d="M364.53 241.82C364.41 241.82 364.31 241.46 364.31 241.01C364.31 240.56 364.41 240.2 364.53 240.2C364.65 240.2 364.74 240.56 364.74 241.01C364.74 241.46 364.64 241.82 364.53 241.82Z" fill="#FFC300"/>
<path d="M364.53 245.07C364.41 245.07 364.31 244.7 364.31 244.26C364.31 243.82 364.41 243.44 364.53 243.44C364.65 243.44 364.74 243.81 364.74 244.26C364.74 244.71 364.64 245.07 364.53 245.07Z" fill="#FFC300"/>
<path d="M364.53 248.31C364.41 248.31 364.31 247.95 364.31 247.5C364.31 247.05 364.41 246.69 364.53 246.69C364.65 246.69 364.74 247.05 364.74 247.5C364.74 247.95 364.64 248.31 364.53 248.31Z" fill="#FFC300"/>
<path d="M364.53 251.56C364.41 251.56 364.31 251.19 364.31 250.75C364.31 250.31 364.41 249.93 364.53 249.93C364.65 249.93 364.74 250.3 364.74 250.75C364.74 251.2 364.64 251.56 364.53 251.56Z" fill="#FFC300"/>
<path d="M364.53 254.8C364.41 254.8 364.31 254.44 364.31 253.99C364.31 253.54 364.41 253.18 364.53 253.18C364.65 253.18 364.74 253.54 364.74 253.99C364.74 254.44 364.64 254.8 364.53 254.8Z" fill="#FFC300"/>
<path d="M364.53 258.05C364.41 258.05 364.31 257.68 364.31 257.24C364.31 256.8 364.41 256.42 364.53 256.42C364.65 256.42 364.74 256.79 364.74 257.24C364.74 257.69 364.64 258.05 364.53 258.05Z" fill="#FFC300"/>
<path d="M364.53 261.29C364.41 261.29 364.31 260.93 364.31 260.48C364.31 260.03 364.41 259.67 364.53 259.67C364.65 259.67 364.74 260.03 364.74 260.48C364.74 260.93 364.64 261.29 364.53 261.29Z" fill="#FFC300"/>
<path d="M364.53 264.54C364.41 264.54 364.31 264.17 364.31 263.73C364.31 263.29 364.41 262.92 364.53 262.92C364.65 262.92 364.74 263.28 364.74 263.73C364.74 264.18 364.64 264.54 364.53 264.54Z" fill="#FFC300"/>
<path d="M364.53 267.78C364.41 267.78 364.31 267.42 364.31 266.97C364.31 266.52 364.41 266.16 364.53 266.16C364.65 266.16 364.74 266.52 364.74 266.97C364.74 267.42 364.64 267.78 364.53 267.78Z" fill="#FFC300"/>
<path d="M364.53 271C364.41 271 364.31 270.63 364.31 270.19C364.31 269.75 364.41 269.38 364.53 269.38C364.65 269.38 364.74 269.74 364.74 270.19C364.74 270.64 364.64 271 364.53 271Z" fill="#FFC300"/>
<path d="M303.6 264.82C303.6 264.71 303.96 264.61 304.41 264.61L304.2 264.82V264.53C304.209 264.442 304.226 264.355 304.25 264.27C304.25 264.12 304.34 264.03 304.4 264.03C304.46 264.03 304.51 264.12 304.55 264.27C304.557 264.356 304.557 264.443 304.55 264.53V264.68V264.82C304.46 264.92 304.76 264.61 304.34 265.04C304 265 303.6 264.94 303.6 264.82Z" fill="#FFC300"/>
<path d="M300.57 264.82C300.57 264.71 300.91 264.61 301.32 264.61C301.73 264.61 302.08 264.71 302.08 264.82C302.08 264.93 301.74 265.04 301.32 265.04C300.9 265.04 300.57 264.94 300.57 264.82Z" fill="#FFC300"/>
<path d="M297.54 264.82C297.54 264.71 297.88 264.61 298.29 264.61C298.7 264.61 299.05 264.71 299.05 264.82C299.05 264.93 298.71 265.04 298.29 265.04C297.87 265.04 297.54 264.94 297.54 264.82Z" fill="#FFC300"/>
<path d="M294.51 264.82C294.51 264.71 294.85 264.61 295.26 264.61C295.67 264.61 296.02 264.71 296.02 264.82C296.02 264.93 295.68 265.04 295.26 265.04C294.84 265.04 294.51 264.94 294.51 264.82Z" fill="#FFC300"/>
<path d="M291.48 264.82C291.48 264.71 291.82 264.61 292.23 264.61C292.64 264.61 292.99 264.71 292.99 264.82C292.99 264.93 292.65 265.04 292.23 265.04C291.81 265.04 291.48 264.94 291.48 264.82Z" fill="#FFC300"/>
<path d="M288.45 264.82C288.45 264.71 288.78 264.61 289.2 264.61C289.62 264.61 289.96 264.71 289.96 264.82C289.96 264.93 289.62 265.04 289.2 265.04C288.78 265.04 288.45 264.94 288.45 264.82Z" fill="#FFC300"/>
<path d="M285.42 264.82C285.42 264.71 285.75 264.61 286.17 264.61C286.59 264.61 286.93 264.71 286.93 264.82C286.93 264.93 286.59 265.04 286.17 265.04C285.75 265.04 285.42 264.94 285.42 264.82Z" fill="#FFC300"/>
<path d="M282.39 264.82C282.39 264.71 282.72 264.61 283.14 264.61C283.56 264.61 283.9 264.71 283.9 264.82C283.9 264.93 283.56 265.04 283.14 265.04C282.72 265.04 282.39 264.94 282.39 264.82Z" fill="#FFC300"/>
<path d="M280.06 264C280.18 264 280.27 264.37 280.27 264.81L280.06 264.6H280.37H280.63C280.78 264.6 280.87 264.7 280.87 264.75C280.87 264.8 280.78 264.87 280.63 264.9H280.37H280.06C279.96 264.8 280.27 265.11 279.85 264.68C279.85 264.38 279.94 264 280.06 264Z" fill="#FFC300"/>
<path d="M280.06 260.75C280.18 260.75 280.27 261.11 280.27 261.56C280.27 262.01 280.18 262.38 280.06 262.38C279.94 262.38 279.85 262.01 279.85 261.56C279.85 261.11 279.94 260.75 280.06 260.75Z" fill="#FFC300"/>
<path d="M280.06 257.48C280.18 257.48 280.27 257.85 280.27 258.3C280.27 258.75 280.18 259.11 280.06 259.11C279.94 259.11 279.85 258.75 279.85 258.3C279.85 257.85 279.94 257.48 280.06 257.48Z" fill="#FFC300"/>
<path d="M280.06 254.21C280.18 254.21 280.27 254.58 280.27 255.03C280.27 255.48 280.18 255.85 280.06 255.85C279.94 255.85 279.85 255.48 279.85 255.03C279.85 254.58 279.94 254.21 280.06 254.21Z" fill="#FFC300"/>
<path d="M280.06 251C280.18 251 280.27 251.36 280.27 251.81C280.27 252.26 280.18 252.63 280.06 252.63C279.94 252.63 279.85 252.27 279.85 251.81C279.85 251.35 279.94 251 280.06 251Z" fill="#FFC300"/>
<path d="M280.06 247.68C280.18 247.68 280.27 248.05 280.27 248.5C280.27 248.95 280.18 249.31 280.06 249.31C279.94 249.31 279.85 248.95 279.85 248.5C279.85 248.05 279.94 247.68 280.06 247.68Z" fill="#FFC300"/>
<path d="M280.06 244.42C280.18 244.42 280.27 244.78 280.27 245.23C280.27 245.68 280.18 246.05 280.06 246.05C279.94 246.05 279.85 245.68 279.85 245.23C279.85 244.78 279.94 244.42 280.06 244.42Z" fill="#FFC300"/>
<path d="M280.87 242C280.87 242.12 280.51 242.21 280.06 242.21C280.48 241.79 280.18 242.1 280.27 242V242.14V242.3C280.276 242.383 280.276 242.467 280.27 242.55C280.27 242.7 280.18 242.79 280.12 242.79C280.06 242.79 280.01 242.7 279.97 242.55C279.947 242.468 279.93 242.384 279.92 242.3V242L280.13 241.79C280.51 241.76 280.87 241.85 280.87 242Z" fill="#FFC300"/>
<path d="M283.9 242C283.9 242.12 283.56 242.21 283.14 242.21C282.72 242.21 282.39 242.12 282.39 242C282.39 241.88 282.72 241.79 283.14 241.79C283.56 241.79 283.9 241.85 283.9 242Z" fill="#FFC300"/>
<path d="M286.93 242C286.93 242.12 286.59 242.21 286.17 242.21C285.75 242.21 285.42 242.12 285.42 242C285.42 241.88 285.75 241.79 286.17 241.79C286.59 241.79 286.93 241.85 286.93 242Z" fill="#FFC300"/>
<path d="M290 242C290 242.12 289.66 242.21 289.24 242.21C288.82 242.21 288.49 242.12 288.49 242C288.49 241.88 288.82 241.79 289.24 241.79C289.66 241.79 290 241.85 290 242Z" fill="#FFC300"/>
<path d="M293 242C293 242.12 292.66 242.21 292.24 242.21C291.82 242.21 291.49 242.12 291.49 242C291.49 241.88 291.83 241.79 292.24 241.79C292.65 241.79 293 241.85 293 242Z" fill="#FFC300"/>
<path d="M296 242C296 242.12 295.66 242.21 295.24 242.21C294.82 242.21 294.49 242.12 294.49 242C294.49 241.88 294.83 241.79 295.24 241.79C295.65 241.79 296 241.85 296 242Z" fill="#FFC300"/>
<path d="M299.05 242C299.05 242.12 298.71 242.21 298.29 242.21C297.87 242.21 297.54 242.12 297.54 242C297.54 241.88 297.88 241.79 298.29 241.79C298.7 241.79 299.05 241.85 299.05 242Z" fill="#FFC300"/>
<path d="M302.08 242C302.08 242.12 301.74 242.21 301.32 242.21C300.9 242.21 300.57 242.12 300.57 242C300.57 241.88 300.91 241.79 301.32 241.79C301.73 241.79 302.08 241.85 302.08 242Z" fill="#FFC300"/>
<path d="M304.41 242.78C304.29 242.78 304.2 242.42 304.2 241.97C304.62 242.39 304.31 242.09 304.41 242.18H304.09H303.83C303.69 242.18 303.6 242.09 303.6 242.03C303.6 241.97 303.69 241.92 303.83 241.88H304.09H304.24H304.41L304.62 242.09C304.62 242.42 304.53 242.78 304.41 242.78Z" fill="#FFC300"/>
<path d="M304.41 246.05C304.29 246.05 304.2 245.68 304.2 245.23C304.2 244.78 304.29 244.42 304.41 244.42C304.53 244.42 304.62 244.78 304.62 245.23C304.62 245.68 304.53 246.05 304.41 246.05Z" fill="#FFC300"/>
<path d="M304.41 249.31C304.29 249.31 304.2 248.95 304.2 248.5C304.2 248.05 304.29 247.68 304.41 247.68C304.53 247.68 304.62 248.05 304.62 248.5C304.62 248.95 304.53 249.31 304.41 249.31Z" fill="#FFC300"/>
<path d="M304.41 252.58C304.29 252.58 304.2 252.22 304.2 251.76C304.2 251.3 304.29 250.95 304.41 250.95C304.53 250.95 304.62 251.31 304.62 251.76C304.62 252.21 304.53 252.58 304.41 252.58Z" fill="#FFC300"/>
<path d="M304.41 255.85C304.29 255.85 304.2 255.48 304.2 255.03C304.2 254.58 304.29 254.21 304.41 254.21C304.53 254.21 304.62 254.58 304.62 255.03C304.62 255.48 304.53 255.85 304.41 255.85Z" fill="#FFC300"/>
<path d="M304.41 259.11C304.29 259.11 304.2 258.75 304.2 258.3C304.2 257.85 304.29 257.48 304.41 257.48C304.53 257.48 304.62 257.85 304.62 258.3C304.62 258.75 304.53 259.11 304.41 259.11Z" fill="#FFC300"/>
<path d="M304.41 262.38C304.29 262.38 304.2 262.01 304.2 261.56C304.2 261.11 304.29 260.75 304.41 260.75C304.53 260.75 304.62 261.11 304.62 261.56C304.62 262.01 304.53 262.38 304.41 262.38Z" fill="#FFC300"/>
<path d="M280.64 264.24H279.48V265.4H280.64V264.24Z" fill="#FFC300"/>
<path d="M280.64 241.39H279.48V242.55H280.64V241.39Z" fill="#FFC300"/>
<path d="M304.99 241.39H303.83V242.55H304.99V241.39Z" fill="#FFC300"/>
<path d="M304.99 263.66H303.83V264.82H304.99V263.66Z" fill="#FFC300"/>
<path d="M292.23 264.24H291.07V265.4H292.23V264.24Z" fill="#FFC300"/>
<path d="M292.81 241.39H291.65V242.55H292.81V241.39Z" fill="#FFC300"/>
<path d="M280.64 253.4H279.48V254.56H280.64V253.4Z" fill="#FFC300"/>
<path d="M304.41 252.82H303.25V253.98H304.41V252.82Z" fill="#FFC300"/>
<path d="M152.52 441.43L146.67 463.04L165.67 464.78L169.66 444.2L152.52 441.43Z" fill="#FFC300"/>
<path d="M166.22 463C165.292 463.061 164.361 463.028 163.44 462.9C161.73 462.77 159.37 462.5 156.77 462.17L150.13 461.28C149.206 461.197 148.289 461.04 147.39 460.81C148.321 460.736 149.257 460.77 150.18 460.91C151.89 461.05 154.25 461.31 156.84 461.65L163.48 462.53C164.406 462.604 165.323 462.761 166.22 463Z" fill="#263238"/>
<g opacity="0.6">
<path d="M146.67 463.04L165.67 464.78L165.98 463.19L147.22 460.81L146.69 462.83" fill="white"/>
</g>
<path d="M156.11 462.08C156.568 459.29 157.172 456.526 157.92 453.8C158.519 451.038 159.267 448.311 160.16 445.63C159.702 448.42 159.098 451.184 158.35 453.91C157.746 456.67 156.998 459.397 156.11 462.08Z" fill="#263238"/>
<path d="M165.17 462.88C165.487 461.567 165.504 460.2 165.22 458.88C164.879 457.462 164.16 456.163 163.14 455.12C161.861 453.872 160.19 453.106 158.41 452.95C156.633 452.763 154.844 453.167 153.32 454.1C152.073 454.884 151.042 455.966 150.32 457.25C149.692 458.451 149.285 459.755 149.12 461.1C149.107 461.004 149.107 460.906 149.12 460.81C149.122 460.536 149.138 460.262 149.17 459.99C149.299 458.981 149.604 458.003 150.07 457.1C150.767 455.748 151.8 454.598 153.07 453.76C154.659 452.746 156.546 452.302 158.42 452.5C160.126 452.635 161.741 453.324 163.018 454.464C164.295 455.604 165.163 457.13 165.49 458.81C165.693 459.8 165.693 460.82 165.49 461.81C165.432 462.078 165.355 462.342 165.26 462.6C165.23 462.79 165.19 462.88 165.17 462.88Z" fill="#263238"/>
<path d="M231 435.63L229.73 454.83C229.73 454.83 248.84 461.18 248.95 464.75L211.61 465.02L212.36 435.02L231 435.63Z" fill="#FFC300"/>
<g opacity="0.6">
<path d="M218.2 452.87C217.838 452.967 217.524 453.194 217.32 453.507C217.115 453.821 217.033 454.2 217.09 454.57C217.174 454.936 217.395 455.256 217.707 455.464C218.02 455.672 218.4 455.753 218.77 455.69C219.154 455.582 219.485 455.337 219.701 455.002C219.916 454.667 220.001 454.264 219.94 453.87C219.818 453.492 219.553 453.176 219.203 452.989C218.852 452.803 218.442 452.76 218.06 452.87" fill="white"/>
</g>
<g opacity="0.6">
<path d="M211.57 465L211.65 462L247.71 463C248.088 463.194 248.412 463.478 248.655 463.826C248.897 464.175 249.05 464.578 249.1 465H211.57Z" fill="white"/>
</g>
<path d="M230.3 454.66C230.3 454.84 229.37 454.9 228.46 455.46C227.55 456.02 227.04 456.77 226.88 456.69C226.72 456.61 227.02 455.57 228.14 454.91C229.26 454.25 230.34 454.5 230.3 454.66Z" fill="#263238"/>
<path d="M234.16 456.4C234.16 456.58 233.4 456.86 232.76 457.62C232.12 458.38 231.91 459.18 231.76 459.16C231.61 459.14 231.5 458.16 232.31 457.16C233.12 456.16 234.17 456.23 234.16 456.4Z" fill="#263238"/>
<path d="M236.25 461.15C236.08 461.15 235.85 460.27 236.35 459.28C236.85 458.29 237.71 457.93 237.79 458.08C237.87 458.23 237.32 458.75 236.92 459.57C236.52 460.39 236.43 461.14 236.25 461.15Z" fill="#263238"/>
<path d="M230.1 450.25C230.02 450.42 229.19 450.14 228.16 450.18C227.13 450.22 226.32 450.52 226.23 450.36C226.14 450.2 226.93 449.57 228.14 449.54C229.35 449.51 230.2 450.11 230.1 450.25Z" fill="#263238"/>
<g opacity="0.3">
<path d="M230.7 439.43L230.48 442.86L212.14 442.13L212.22 439.05L230.7 439.43Z" fill="black"/>
</g>
<path d="M230.29 446.37C229.673 446.523 229.026 446.502 228.42 446.31C227.75 446.165 227.099 445.944 226.48 445.65C226.135 445.471 225.801 445.271 225.48 445.05C225.275 444.925 225.09 444.77 224.93 444.59C224.806 444.456 224.732 444.283 224.721 444.101C224.71 443.918 224.763 443.738 224.87 443.59C224.965 443.466 225.088 443.367 225.229 443.299C225.37 443.231 225.524 443.197 225.68 443.2C225.918 443.201 226.154 443.238 226.38 443.31C226.775 443.425 227.16 443.572 227.53 443.75C228.153 444.051 228.723 444.45 229.22 444.93C230.06 445.76 230.34 446.45 230.27 446.48C230.2 446.51 229.78 445.96 228.92 445.27C228.421 444.865 227.869 444.528 227.28 444.27C226.936 444.121 226.582 443.998 226.22 443.9C225.83 443.79 225.49 443.78 225.39 443.95C225.29 444.12 225.34 444.04 225.39 444.16C225.508 444.291 225.647 444.403 225.8 444.49C226.122 444.709 226.456 444.909 226.8 445.09C227.368 445.393 227.964 445.641 228.58 445.83C229.16 445.976 229.731 446.157 230.29 446.37Z" fill="#263238"/>
<path d="M230 446.63C229.672 446.083 229.521 445.447 229.57 444.81C229.556 444.13 229.661 443.453 229.88 442.81C230.017 442.422 230.187 442.047 230.39 441.69C230.498 441.446 230.667 441.234 230.881 441.075C231.094 440.916 231.346 440.814 231.61 440.78C231.777 440.79 231.938 440.847 232.074 440.944C232.21 441.041 232.316 441.175 232.38 441.33C232.466 441.552 232.523 441.784 232.55 442.02C232.611 442.438 232.611 442.862 232.55 443.28C232.429 443.974 232.137 444.627 231.7 445.18C230.94 446.13 230.17 446.32 230.16 446.26C230.15 446.2 230.74 445.84 231.33 444.92C231.67 444.395 231.889 443.8 231.97 443.18C232.025 442.822 232.025 442.458 231.97 442.1C231.97 441.7 231.79 441.38 231.64 441.42C231.49 441.46 231.13 441.7 230.97 442.01C230.772 442.327 230.604 442.661 230.47 443.01C230.248 443.605 230.107 444.227 230.05 444.86C230 445.92 230.14 446.6 230 446.63Z" fill="#263238"/>
<path d="M230.96 268.81L174.06 268.38L146.57 448.96L170.18 451.95L200.45 303.48L209.5 452.48L209.53 452.93L235.06 452.48L230.96 268.81Z" fill="#263238"/>
<path d="M205.08 283.44C205.471 283.39 205.866 283.363 206.26 283.36L209.68 283.24L221.98 282.89H222.21V283.13C222.21 286.7 222.21 290.69 222.21 294.93V295L222.13 295.08C221.44 295.7 220.72 296.37 219.98 297.08C217.79 299.08 215.68 301.03 213.67 302.86L213.5 303.01L213.34 302.86L204.92 295.36L204.85 295.3V295.21C204.85 291.62 204.93 288.68 204.96 286.56C204.96 285.56 204.96 284.82 204.96 284.23C204.942 283.967 204.942 283.703 204.96 283.44C204.98 283.726 204.98 284.014 204.96 284.3C204.96 284.91 204.96 285.7 205.01 286.68C205.01 288.77 205.07 291.68 205.11 295.21L205.05 295.06L213.53 302.49H213.19L219.49 296.69L221.64 294.69L221.55 294.89C221.55 290.65 221.55 286.66 221.55 283.09L221.79 283.32L209.63 283.44H205.22C205.173 283.442 205.127 283.442 205.08 283.44Z" fill="#455A64"/>
<path d="M178.31 282.66C178.643 282.638 178.977 282.638 179.31 282.66L182.38 282.91L193.44 283.91H193.67V284.14C193.26 287.63 192.78 291.6 192.27 295.85V295.95L192.19 296.02L189.74 298.02L183.68 302.83L183.49 302.99L183.33 302.79C180.89 299.7 178.64 296.87 176.72 294.43L176.66 294.36V294.28C177.14 290.74 177.53 287.82 177.82 285.71C177.96 284.71 178.07 283.98 178.15 283.39C178.17 283.128 178.221 282.87 178.3 282.62C178.294 282.911 178.271 283.202 178.23 283.49C178.17 284.09 178.1 284.88 178 285.86C177.77 287.94 177.45 290.86 177.07 294.33V294.17L183.75 302.48H183.4L189.4 297.65L191.86 295.65L191.76 295.83C192.29 291.58 192.76 287.61 193.22 284.12L193.43 284.38L182.53 283.16L179.43 282.79C178.71 282.73 178.32 282.68 178.31 282.66Z" fill="#455A64"/>
<path d="M213.12 310.07C212.227 309.721 211.364 309.3 210.54 308.81C208.97 308 206.81 306.87 204.4 305.66C201.99 304.45 199.78 303.41 198.18 302.66C197.299 302.291 196.447 301.856 195.63 301.36C196.563 301.595 197.469 301.931 198.33 302.36C199.97 303.03 202.21 304.03 204.63 305.24C207.05 306.45 209.19 307.63 210.72 308.53C211.566 308.967 212.37 309.483 213.12 310.07Z" fill="#455A64"/>
<path d="M212.38 314.45C211.694 314.328 211.036 314.081 210.44 313.72C207.424 312.171 204.961 309.725 203.39 306.72C203.017 306.131 202.759 305.476 202.63 304.79C204.786 308.941 208.199 312.304 212.38 314.4V314.45Z" fill="#455A64"/>
<path d="M228.45 366.63C228.406 366.953 228.318 367.27 228.19 367.57C227.883 368.421 227.484 369.236 227 370C225.426 372.53 223.107 374.511 220.362 375.669C217.617 376.828 214.581 377.107 211.67 376.47C210.797 376.29 209.946 376.018 209.13 375.66C208.818 375.55 208.527 375.388 208.27 375.18C209.41 375.551 210.568 375.861 211.74 376.11C214.576 376.631 217.502 376.311 220.158 375.19C222.815 374.069 225.085 372.195 226.69 369.8C227.94 367.93 228.35 366.59 228.45 366.63Z" fill="#455A64"/>
<path d="M224.7 365.09C224.042 365.55 223.307 365.889 222.53 366.09C220.695 366.658 218.791 366.974 216.87 367.03C214.957 367.097 213.042 366.983 211.15 366.69C210.361 366.612 209.585 366.434 208.84 366.16C208.84 365.98 212.43 366.67 216.84 366.51C218.722 366.447 220.592 366.189 222.42 365.74C223.83 365.35 224.67 365 224.7 365.09Z" fill="#455A64"/>
<path d="M182.4 366.17C181.823 366.859 181.149 367.462 180.4 367.96C178.666 369.251 176.757 370.288 174.73 371.04C172.705 371.793 170.584 372.257 168.43 372.42C167.542 372.525 166.643 372.505 165.76 372.36C166.63 372.207 167.508 372.104 168.39 372.05C172.614 371.534 176.656 370.03 180.19 367.66C180.9 367.124 181.637 366.627 182.4 366.17Z" fill="#455A64"/>
<path d="M177.41 366C173.979 366.853 170.363 366.565 167.11 365.18C167.11 365.03 169.4 365.69 172.24 365.91C175.08 366.13 177.39 365.79 177.41 366Z" fill="#455A64"/>
<path d="M200.11 304.72C199.31 305.215 198.45 305.604 197.55 305.88C195.423 306.657 193.227 307.226 190.99 307.58C188.752 307.938 186.486 308.086 184.22 308.02C183.277 308.038 182.336 307.934 181.42 307.71C182.352 307.635 183.286 307.615 184.22 307.65C188.703 307.587 193.153 306.872 197.43 305.53C198.307 305.208 199.202 304.937 200.11 304.72Z" fill="#455A64"/>
<path d="M198.56 298.89C198.7 298.89 198.82 299.34 198.83 299.89C198.84 300.44 198.73 300.89 198.58 300.89C198.43 300.89 198.32 300.45 198.31 299.89C198.3 299.33 198.41 298.89 198.56 298.89Z" fill="#455A64"/>
<path d="M198.56 294.89C198.7 294.89 198.82 295.34 198.81 295.89C198.8 296.44 198.69 296.89 198.55 296.89C198.41 296.89 198.29 296.44 198.29 295.89C198.29 295.34 198.42 294.89 198.56 294.89Z" fill="#455A64"/>
<path d="M198.64 290.89C198.79 290.89 198.89 291.35 198.88 291.89C198.87 292.43 198.74 292.89 198.59 292.89C198.44 292.89 198.34 292.44 198.36 291.89C198.38 291.34 198.5 290.89 198.64 290.89Z" fill="#455A64"/>
<path d="M198.8 286.9C198.95 286.9 199.04 287.36 199.02 287.9C199 288.44 198.86 288.9 198.71 288.9C198.56 288.9 198.47 288.45 198.5 287.9C198.53 287.35 198.66 286.89 198.8 286.9Z" fill="#455A64"/>
<path d="M199 282.9C199.14 282.9 199.23 283.37 199.2 283.9C199.17 284.43 199.01 284.9 198.87 284.9C198.73 284.9 198.64 284.44 198.68 283.9C198.72 283.36 198.9 282.89 199 282.9Z" fill="#455A64"/>
<path d="M199.35 278.91C199.5 278.91 199.58 279.38 199.53 279.91C199.48 280.44 199.33 280.91 199.19 280.91C199.05 280.91 198.96 280.44 199.01 279.91C199.06 279.38 199.21 278.9 199.35 278.91Z" fill="#455A64"/>
<path d="M199.67 275.65C199.81 275.65 199.9 275.96 199.86 276.31C199.82 276.66 199.68 276.94 199.54 276.92C199.4 276.9 199.31 276.61 199.35 276.26C199.39 275.91 199.53 275.63 199.67 275.65Z" fill="#455A64"/>
<path d="M167.5 448C167.65 448 167.67 448.49 167.56 449C167.45 449.51 167.25 450 167.11 449.93C166.97 449.86 166.94 449.44 167.05 448.93C167.16 448.42 167.36 448 167.5 448Z" fill="#455A64"/>
<path d="M168.29 444.07C168.43 444.07 168.46 444.56 168.35 445.07C168.24 445.58 168.04 446.07 167.9 446C167.76 445.93 167.73 445.51 167.84 445C167.95 444.49 168.15 444 168.29 444.07Z" fill="#455A64"/>
<path d="M169.07 440.15C169.21 440.15 169.24 440.64 169.13 441.15C169.02 441.66 168.82 442.15 168.68 442.08C168.54 442.01 168.51 441.59 168.62 441.08C168.73 440.57 168.93 440.12 169.07 440.15Z" fill="#455A64"/>
<path d="M169.86 436.23C170 436.23 170.03 436.72 169.92 437.23C169.81 437.74 169.61 438.23 169.47 438.16C169.33 438.09 169.3 437.67 169.41 437.16C169.52 436.65 169.72 436.2 169.86 436.23Z" fill="#455A64"/>
<path d="M170.64 432.3C170.78 432.3 170.81 432.8 170.7 433.3C170.59 433.8 170.39 434.3 170.25 434.23C170.11 434.16 170.08 433.74 170.19 433.23C170.3 432.72 170.5 432.28 170.64 432.3Z" fill="#455A64"/>
<path d="M171.43 428.38C171.57 428.38 171.6 428.87 171.49 429.38C171.38 429.89 171.18 430.38 171.04 430.31C170.9 430.24 170.87 429.82 170.98 429.31C171.09 428.8 171.29 428.35 171.43 428.38Z" fill="#455A64"/>
<path d="M172.21 424.46C172.35 424.46 172.38 424.95 172.27 425.46C172.16 425.97 171.96 426.46 171.82 426.39C171.68 426.32 171.65 425.9 171.76 425.39C171.87 424.88 172.07 424.43 172.21 424.46Z" fill="#455A64"/>
<path d="M173 420.54C173.14 420.54 173.16 421.03 173.06 421.54C172.96 422.05 172.75 422.54 172.6 422.47C172.45 422.4 172.44 421.98 172.6 421.47C172.76 420.96 172.86 420.51 173 420.54Z" fill="#455A64"/>
<path d="M173.78 416.62C173.92 416.62 173.95 417.11 173.84 417.62C173.73 418.13 173.53 418.62 173.39 418.55C173.25 418.48 173.22 418.06 173.33 417.55C173.44 417.04 173.64 416.59 173.78 416.62Z" fill="#455A64"/>
<path d="M174.57 412.69C174.71 412.69 174.73 413.18 174.63 413.69C174.53 414.2 174.32 414.64 174.17 414.61C174.02 414.58 174.01 414.12 174.11 413.61C174.21 413.1 174.43 412.67 174.57 412.69Z" fill="#455A64"/>
<path d="M175.35 408.77C175.49 408.77 175.52 409.26 175.41 409.77C175.3 410.28 175.1 410.77 174.96 410.7C174.82 410.63 174.79 410.21 174.9 409.7C175.01 409.19 175.21 408.74 175.35 408.77Z" fill="#455A64"/>
<path d="M176.14 404.85C176.28 404.85 176.3 405.34 176.19 405.85C176.08 406.36 175.88 406.85 175.74 406.78C175.6 406.71 175.58 406.29 175.68 405.78C175.78 405.27 176 404.82 176.14 404.85Z" fill="#455A64"/>
<path d="M176.92 400.93C177.06 400.93 177.09 401.42 176.98 401.93C176.87 402.44 176.67 402.93 176.53 402.86C176.39 402.79 176.36 402.37 176.47 401.86C176.58 401.35 176.78 400.9 176.92 400.93Z" fill="#455A64"/>
<path d="M177.7 397C177.85 397 177.87 397.49 177.76 398C177.65 398.51 177.45 398.95 177.31 398.93C177.17 398.91 177.15 398.44 177.25 397.93C177.35 397.42 177.56 397 177.7 397Z" fill="#455A64"/>
<path d="M178.49 393.08C178.63 393.08 178.66 393.57 178.55 394.08C178.44 394.59 178.24 395.08 178.1 395.01C177.96 394.94 177.93 394.52 178.04 394.01C178.15 393.5 178.35 393.05 178.49 393.08Z" fill="#455A64"/>
<path d="M179.27 389.16C179.42 389.16 179.44 389.65 179.33 390.16C179.22 390.67 179.02 391.16 178.88 391.09C178.74 391.02 178.71 390.6 178.82 390.09C178.93 389.58 179.13 389.13 179.27 389.16Z" fill="#455A64"/>
<path d="M180.06 385.24C180.2 385.24 180.23 385.73 180.12 386.24C180.01 386.75 179.81 387.24 179.67 387.17C179.53 387.1 179.5 386.68 179.61 386.17C179.72 385.66 179.92 385.21 180.06 385.24Z" fill="#455A64"/>
<path d="M180.84 381.32C180.98 381.32 181.01 381.81 180.9 382.32C180.79 382.83 180.59 383.27 180.45 383.25C180.31 383.23 180.28 382.76 180.39 382.25C180.5 381.74 180.7 381.29 180.84 381.32Z" fill="#455A64"/>
<path d="M181.63 377.39C181.77 377.39 181.8 377.88 181.69 378.39C181.58 378.9 181.38 379.39 181.24 379.32C181.1 379.25 181.07 378.83 181.18 378.32C181.29 377.81 181.49 377.36 181.63 377.39Z" fill="#455A64"/>
<path d="M182.41 373.47C182.55 373.47 182.58 373.96 182.47 374.47C182.36 374.98 182.16 375.47 182.02 375.4C181.88 375.33 181.85 374.91 181.96 374.4C182.07 373.89 182.27 373.44 182.41 373.47Z" fill="#455A64"/>
<path d="M183.2 369.55C183.34 369.55 183.36 370.04 183.26 370.55C183.16 371.06 182.95 371.55 182.81 371.48C182.67 371.41 182.64 370.99 182.75 370.48C182.86 369.97 183.06 369.52 183.2 369.55Z" fill="#455A64"/>
<path d="M184 365.63C184.14 365.63 184.17 366.12 184.06 366.63C183.95 367.14 183.75 367.63 183.61 367.56C183.47 367.49 183.44 367.07 183.55 366.56C183.66 366.05 183.84 365.6 184 365.63Z" fill="#455A64"/>
<path d="M184.77 361.7C184.91 361.7 184.93 362.19 184.83 362.7C184.73 363.21 184.52 363.65 184.37 363.62C184.22 363.59 184.21 363.13 184.32 362.62C184.43 362.11 184.63 361.68 184.77 361.7Z" fill="#455A64"/>
<path d="M185.55 357.78C185.69 357.78 185.72 358.27 185.61 358.78C185.5 359.29 185.3 359.78 185.16 359.71C185.02 359.64 184.99 359.22 185.1 358.71C185.21 358.2 185.41 357.75 185.55 357.78Z" fill="#455A64"/>
<path d="M186.34 353.86C186.48 353.86 186.5 354.35 186.4 354.86C186.3 355.37 186.08 355.86 185.94 355.79C185.8 355.72 185.78 355.3 185.88 354.79C185.98 354.28 186.2 353.83 186.34 353.86Z" fill="#455A64"/>
<path d="M187.12 349.94C187.26 349.94 187.29 350.43 187.18 350.94C187.07 351.45 186.87 351.94 186.73 351.87C186.59 351.8 186.56 351.38 186.67 350.87C186.78 350.36 187 349.91 187.12 349.94Z" fill="#455A64"/>
<path d="M187.91 346C188.05 346 188.07 346.49 187.96 347C187.85 347.51 187.65 347.95 187.51 347.93C187.37 347.91 187.35 347.44 187.45 346.93C187.55 346.42 187.76 346 187.91 346Z" fill="#455A64"/>
<path d="M188.69 342.09C188.83 342.09 188.86 342.58 188.75 343.09C188.64 343.6 188.44 344.09 188.3 344.02C188.16 343.95 188.13 343.53 188.24 343.02C188.35 342.51 188.55 342.06 188.69 342.09Z" fill="#455A64"/>
<path d="M189.47 338.17C189.62 338.17 189.64 338.66 189.53 339.17C189.42 339.68 189.22 340.17 189.08 340.1C188.94 340.03 188.91 339.61 189.02 339.1C189.13 338.59 189.33 338.14 189.47 338.17Z" fill="#455A64"/>
<path d="M190.26 334.25C190.4 334.25 190.43 334.74 190.32 335.25C190.21 335.76 190.01 336.25 189.87 336.18C189.73 336.11 189.7 335.69 189.81 335.18C189.92 334.67 190.12 334.22 190.26 334.25Z" fill="#455A64"/>
<path d="M191 330.33C191.14 330.33 191.17 330.82 191.06 331.33C190.95 331.84 190.75 332.28 190.61 332.26C190.47 332.24 190.44 331.77 190.55 331.26C190.66 330.75 190.9 330.3 191 330.33Z" fill="#455A64"/>
<path d="M191.83 326.4C191.97 326.4 192 326.89 191.89 327.4C191.78 327.91 191.58 328.4 191.44 328.33C191.3 328.26 191.27 327.84 191.38 327.33C191.49 326.82 191.69 326.37 191.83 326.4Z" fill="#455A64"/>
<path d="M192.61 322.48C192.75 322.48 192.78 322.97 192.67 323.48C192.56 323.99 192.36 324.48 192.22 324.41C192.08 324.34 192.05 323.92 192.16 323.41C192.27 322.9 192.47 322.45 192.61 322.48Z" fill="#455A64"/>
<path d="M193.4 318.56C193.54 318.56 193.57 319.05 193.46 319.56C193.35 320.07 193.15 320.56 193.01 320.49C192.87 320.42 192.84 320 192.95 319.49C193.06 318.98 193.26 318.53 193.4 318.56Z" fill="#455A64"/>
<path d="M194.18 314.64C194.32 314.64 194.35 315.13 194.24 315.64C194.13 316.15 193.93 316.64 193.79 316.57C193.65 316.5 193.62 316.08 193.73 315.57C193.84 315.06 194 314.61 194.18 314.64Z" fill="#455A64"/>
<path d="M195 310.71C195.14 310.71 195.16 311.2 195.06 311.71C194.96 312.22 194.75 312.66 194.6 312.64C194.45 312.62 194.44 312.15 194.6 311.64C194.76 311.13 194.83 310.69 195 310.71Z" fill="#455A64"/>
<path d="M195.75 306.79C195.89 306.79 195.92 307.28 195.81 307.79C195.7 308.3 195.5 308.79 195.36 308.72C195.22 308.65 195.19 308.23 195.3 307.72C195.41 307.21 195.61 306.76 195.75 306.79Z" fill="#455A64"/>
<path d="M274.18 185.83C274.18 185.83 280.84 175.83 281.02 175.76C281.02 175.76 287.02 165.64 289.02 165.64C291.02 165.64 290.3 167.69 288.24 171.32C287.246 172.894 286.566 174.647 286.24 176.48L291.17 179.48C291.17 179.48 294.47 178.21 294.61 181.28C294.554 182.685 294.363 184.081 294.04 185.45C293.84 186.55 293.34 187.71 292.31 187.3C292.053 187.214 291.829 187.048 291.671 186.827C291.513 186.607 291.429 186.342 291.43 186.07C291.36 184.25 291.7 183.58 291.43 183.58C291.16 183.58 287.88 193.12 287.88 193.12L274.18 185.83Z" fill="#FFBE9D"/>
<path d="M287.62 178C288.119 177.634 288.651 177.316 289.21 177.05C289.772 176.789 290.396 176.691 291.01 176.77C291.397 176.824 291.752 177.016 292.01 177.31C292.161 177.528 292.257 177.779 292.29 178.042C292.323 178.305 292.292 178.572 292.2 178.82C292.007 179.315 291.733 179.774 291.39 180.18" fill="#FFBE9D"/>
<path d="M285.37 176C285.845 175.663 286.347 175.366 286.87 175.11C287.403 174.861 287.997 174.77 288.58 174.85C288.943 174.899 289.277 175.076 289.52 175.35C289.667 175.554 289.76 175.792 289.792 176.042C289.823 176.292 289.792 176.546 289.7 176.78C289.259 177.497 288.747 178.167 288.17 178.78" fill="#FFBE9D"/>
<path d="M276.5 180.2L266.88 200.77L277.49 211.61L283 196.28C283 196.28 286 196.87 287.17 194.9C288.52 192.71 290.29 186.37 290.29 186.37L276.5 180.2Z" fill="#FFBE9D"/>
<path d="M283.37 179.63C283.462 178.592 283.859 177.604 284.51 176.79C284.945 176.187 285.508 175.688 286.16 175.33C286.66 175.06 286.99 174.97 287.02 175.03C287.05 175.09 285.87 175.79 284.93 177.09C283.99 178.39 283.54 179.7 283.37 179.63Z" fill="#EB996E"/>
<path d="M294.05 179.72C294 179.79 293.68 179.61 293.12 179.51C292.401 179.376 291.657 179.489 291.01 179.83C290.386 180.23 289.854 180.758 289.45 181.38C289.11 181.86 288.88 182.16 288.82 182.13C288.76 182.1 288.82 181.73 289.14 181.19C289.491 180.439 290.054 179.806 290.76 179.37C291.133 179.17 291.542 179.048 291.963 179.01C292.384 178.972 292.808 179.02 293.21 179.15C293.82 179.36 294.09 179.67 294.05 179.72Z" fill="#EB996E"/>
<path d="M290.47 176.82C289.674 177.183 288.917 177.625 288.21 178.14C287.13 179.14 286.6 180.21 286.45 180.14C286.59 179.19 287.096 178.332 287.86 177.75C288.367 177.303 288.974 176.984 289.63 176.82C290.14 176.71 290.46 176.75 290.47 176.82Z" fill="#EB996E"/>
<path d="M292.83 181.26C292.97 181.26 293.22 182 292.71 182.8C292.2 183.6 291.39 183.72 291.37 183.58C291.35 183.44 291.89 183.15 292.27 182.53C292.65 181.91 292.68 181.28 292.83 181.26Z" fill="#EB996E"/>
<path d="M274.2 185.43C274.2 185.43 273.87 179.29 275.35 177.9C276.83 176.51 281.09 177.96 281.09 177.96" fill="#FFBE9D"/>
<path d="M281.69 175C281.106 176.254 280.367 177.43 279.49 178.5C278.752 179.667 277.872 180.739 276.87 181.69C278.188 179.266 279.808 177.018 281.69 175Z" fill="#EB996E"/>
<path d="M178 180.62C178.15 179.8 178.35 178.84 178.63 177.72C178.883 176.761 179.296 175.852 179.85 175.03C180.501 173.981 181.292 173.026 182.2 172.19C182.402 172.063 182.558 171.877 182.648 171.656C182.738 171.436 182.757 171.193 182.702 170.961C182.647 170.729 182.521 170.521 182.341 170.365C182.161 170.208 181.937 170.112 181.7 170.09C180.7 170.09 178.11 171.9 176.35 175.09C174.59 178.28 173.56 172.63 173.15 170.58C172.74 168.53 171.15 162.23 170.42 161.86C169.35 161.31 168.57 162.36 169.03 164.4C169.49 166.44 170.44 172.66 169.34 172.83C168.24 173 166.34 162.51 166.34 162.51C166.34 162.51 166.28 160.2 165.01 160.35C162.72 160.62 165.62 171.61 165.93 172.65C166.14 173.37 164.93 173.65 164.77 172.81C164.61 171.97 163.05 162.3 160.71 162.56C158.92 162.75 163.02 171.62 162.22 173.81C161.42 176 159.79 166.81 158.09 167.02C157.45 167.12 156.99 167.27 158.69 172.44C159.51 174.95 162.69 186.69 162.69 186.69L160.86 196.32L175.47 200.02L178 180.62Z" fill="#FFBE9D"/>
<path d="M196.52 128.48L196.38 176.39L216.93 177.39L217.52 165.74C217.52 165.74 224.83 167.19 226.71 160.41C227.91 156.08 227.61 122.6 227.61 122.6L196.52 128.48Z" fill="#FFBE9D"/>
<path d="M230.32 126C227.08 126.92 226.38 132.22 226.38 132.22L221.3 143.43C218.71 141.43 215.24 141.52 214.58 146.07C214.1 149.35 218.19 150.02 218.19 150.02C215.81 154.02 214.19 157.34 210.74 161.19C206.99 165.35 204.89 165.77 200.83 165.84H196.35C196.35 165.84 194.15 158.72 190.09 140.91C185.58 121.16 208.94 123.7 213.27 118.66C220.33 110.41 240.52 123 230.32 126Z" fill="#263238"/>
<path d="M190.52 142.74C186.73 140.19 186.39 133.08 188.6 128.81C189.734 126.682 191.409 124.892 193.456 123.619C195.504 122.346 197.85 121.636 200.26 121.56C200.905 121.593 201.55 121.519 202.17 121.34C203.001 120.887 203.692 120.217 204.17 119.4C207.56 115 210.88 110.68 217.17 110.68C218.573 110.614 219.963 110.962 221.17 111.68C222.287 112.447 223.126 113.556 223.56 114.84C224.715 114.218 225.955 113.77 227.24 113.51C227.887 113.383 228.553 113.398 229.194 113.553C229.834 113.708 230.433 114.001 230.95 114.41C231.45 114.838 231.782 115.429 231.889 116.079C231.995 116.729 231.868 117.395 231.53 117.96C232.598 117.945 233.636 118.313 234.456 118.997C235.275 119.682 235.823 120.637 236 121.69C236.34 123.79 233.32 125.27 233 125.43C233 125.43 234.65 128.9 230.71 130.97C229.12 131.81 227.05 130.8 226.82 130.68" fill="#263238"/>
<path d="M205.52 147.34C205.921 149.789 205.358 152.297 203.95 154.34C203.82 154.27 204.48 152.8 204.95 150.89C205.42 148.98 205.37 147.35 205.52 147.34Z" fill="#455A64"/>
<path d="M208 145C208.175 146.167 208.11 147.358 207.81 148.5C207.684 149.677 207.313 150.815 206.72 151.84C206.809 150.681 207.003 149.533 207.3 148.41C207.425 147.254 207.659 146.112 208 145Z" fill="#455A64"/>
<path d="M215.13 137.08C215.18 137.15 214.6 137.58 213.86 138.44C212.907 139.581 212.157 140.876 211.64 142.27C211.13 143.675 210.723 145.116 210.42 146.58C210.326 147.202 210.154 147.81 209.91 148.39C209.865 147.76 209.912 147.126 210.05 146.51C210.263 144.998 210.635 143.514 211.16 142.08C211.692 140.629 212.52 139.305 213.59 138.19C214.007 137.702 214.535 137.321 215.13 137.08Z" fill="#455A64"/>
<path d="M218 131.7C218.06 131.7 218.27 132.16 218.4 133C218.703 135.205 218.14 137.441 216.83 139.24C216.33 139.91 215.92 140.24 215.83 140.19C216.609 138.922 217.227 137.561 217.67 136.14C217.967 134.68 218.078 133.188 218 131.7Z" fill="#455A64"/>
<path d="M193.48 143.67C193.41 143.79 192.78 143.57 192.07 143.18C191.36 142.79 190.85 142.36 190.92 142.24C190.99 142.12 191.62 142.33 192.32 142.73C193.02 143.13 193.55 143.54 193.48 143.67Z" fill="#455A64"/>
<path d="M203.41 138.55C203.487 139.296 203.276 140.044 202.82 140.64C202.19 141.69 201.33 142.24 201.25 142.13C201.17 142.02 201.8 141.34 202.37 140.37C202.94 139.4 203.26 138.52 203.41 138.55Z" fill="#455A64"/>
<path d="M206.46 136.91C206.439 137.818 206.119 138.693 205.55 139.4C204.72 140.65 203.69 141.32 203.61 141.21C204.068 140.481 204.569 139.78 205.11 139.11C205.518 138.352 205.969 137.617 206.46 136.91Z" fill="#455A64"/>
<path d="M221.64 116.85C221.64 116.85 221.25 116.55 220.51 116.13C219.45 115.564 218.271 115.259 217.07 115.24C215.307 115.202 213.571 115.674 212.07 116.6C210.24 117.793 208.754 119.445 207.76 121.39C207.01 122.82 206.423 124.329 206.01 125.89L205.93 126.19L205.66 126.04C204.242 125.299 202.67 124.898 201.07 124.87C199.804 124.836 198.541 125.025 197.34 125.43C196.289 125.833 195.283 126.346 194.34 126.96C194.535 126.72 194.768 126.514 195.03 126.35C195.719 125.842 196.476 125.434 197.28 125.14C198.509 124.671 199.815 124.434 201.13 124.44C202.803 124.437 204.452 124.835 205.94 125.6L205.58 125.76C205.987 124.159 206.581 122.612 207.35 121.15C208.376 119.104 209.938 117.376 211.87 116.15C213.471 115.195 215.319 114.736 217.18 114.83C218.434 114.884 219.653 115.259 220.72 115.92C221.002 116.102 221.266 116.309 221.51 116.54C221.57 116.74 221.65 116.83 221.64 116.85Z" fill="#455A64"/>
<path d="M232.45 119.45C232.45 119.45 233.02 119.3 233.63 119.99C233.806 120.195 233.938 120.434 234.019 120.692C234.099 120.95 234.127 121.221 234.1 121.49C234.047 121.847 233.911 122.187 233.705 122.484C233.499 122.781 233.227 123.026 232.91 123.2C232.151 123.628 231.256 123.749 230.41 123.54C229.475 123.299 228.598 122.874 227.83 122.29C227.027 121.661 226.186 121.083 225.31 120.56C224.371 120.054 223.359 119.697 222.31 119.5C220.24 119.127 218.111 119.272 216.11 119.92C214.473 120.456 212.928 121.242 211.53 122.25C210.259 123.217 209.037 124.249 207.87 125.34C208.101 124.977 208.373 124.641 208.68 124.34C209.487 123.472 210.367 122.676 211.31 121.96C212.718 120.887 214.287 120.047 215.96 119.47C218.033 118.775 220.247 118.61 222.4 118.99C223.516 119.202 224.593 119.586 225.59 120.13C226.478 120.667 227.33 121.262 228.14 121.91C228.854 122.468 229.669 122.882 230.54 123.13C231.28 123.336 232.071 123.25 232.75 122.89C233.031 122.753 233.276 122.553 233.465 122.304C233.654 122.056 233.783 121.767 233.84 121.46C233.907 121.017 233.804 120.564 233.552 120.194C233.3 119.823 232.917 119.561 232.48 119.46L232.45 119.45Z" fill="#455A64"/>
<path d="M175.63 178.73L150.51 223.65C149.819 225.644 149.635 227.777 149.974 229.86C150.313 231.942 151.163 233.908 152.45 235.58L151.93 234.84C152.935 236.085 154.205 237.091 155.648 237.783C157.091 238.475 158.67 238.836 160.27 238.84H160.74C162.83 238.84 164.875 238.23 166.623 237.084C168.371 235.938 169.746 234.307 170.58 232.39L176.47 223.39L175.63 178.73Z" fill="#FFC300"/>
<path d="M230 175.52C225.07 173 220.21 172.43 214.9 172.28C208.72 172.1 200 171.23 193.34 171.94C193.34 171.94 173.04 171.32 172.95 187.05L175.63 247.45L171.28 273.34L232.12 275.18L231.68 244.64C232.43 228.75 230.83 206.25 230.83 206.25C231.76 197.7 236.44 193.86 237.1 188.3C237.72 183.39 234.44 177.77 230 175.52Z" fill="#FFC300"/>
<path d="M212.89 248.33C212.625 248.648 212.323 248.934 211.99 249.18C211.122 249.89 210.195 250.526 209.22 251.08C205.977 252.936 202.319 253.943 198.584 254.01C194.848 254.076 191.157 253.199 187.85 251.46C186.857 250.937 185.907 250.335 185.01 249.66C184.672 249.424 184.363 249.149 184.09 248.84C184.15 248.76 185.5 249.9 188.02 251.13C191.298 252.74 194.913 253.546 198.565 253.482C202.217 253.418 205.801 252.485 209.02 250.76C211.52 249.44 212.82 248.25 212.89 248.33Z" fill="#263238"/>
<path d="M173 187.05C173.04 187.248 173.063 187.448 173.07 187.65C173.07 188.1 173.13 188.65 173.17 189.36C173.24 190.91 173.34 193.04 173.46 195.64C173.69 201 173.99 208.3 174.33 216.36C174.67 224.42 175.03 231.72 175.27 237.09C175.4 239.69 175.51 241.82 175.59 243.37C175.59 244.06 175.64 244.63 175.66 245.08C175.684 245.279 175.684 245.481 175.66 245.68C175.606 245.484 175.576 245.283 175.57 245.08C175.57 244.64 175.47 244.08 175.4 243.38C175.25 241.9 175.1 239.76 174.91 237.11C174.55 231.81 174.16 224.48 173.82 216.39C173.48 208.3 173.24 200.96 173.1 195.65C173.1 193.05 173.01 190.92 172.98 189.36C172.98 188.67 172.98 188.1 172.98 187.65C172.963 187.45 172.97 187.249 173 187.05Z" fill="#263238"/>
<path d="M160.22 192.27C160.22 192.27 157.92 199.03 157.51 199.94C157.51 199.94 151.83 216.36 149.98 227.45L168.14 194.66C168.3 194.68 160.47 192.34 160.22 192.27Z" fill="#FFC300"/>
<path d="M169.17 190.29C169.117 190.454 169.046 190.611 168.96 190.76L168.27 192.08C167.65 193.21 166.74 194.84 165.57 196.83C163.26 200.83 159.79 206.16 156.28 212.24C154.53 215.24 153.04 218.24 151.75 221.03C150.527 223.412 149.919 226.063 149.98 228.74C150.073 230.542 150.554 232.302 151.39 233.9C151.99 235.02 152.49 235.55 152.45 235.58C152.41 235.61 152.31 235.47 152.08 235.21C151.761 234.829 151.47 234.424 151.21 234C150.284 232.398 149.737 230.606 149.61 228.76C149.497 226.015 150.082 223.287 151.31 220.83C152.59 218.05 154.06 215.04 155.83 211.98C159.35 205.88 162.83 200.58 165.26 196.64L168.09 191.98L168.87 190.71C169.05 190.43 169.15 190.28 169.17 190.29Z" fill="#263238"/>
<path d="M281.06 207.06L267 197.85L258.11 213.24C258.11 213.24 245.79 196.12 240.2 186.09C235.05 176.86 228.39 174.38 225.2 173.71C224.98 173.664 224.753 173.671 224.536 173.731C224.32 173.79 224.12 173.9 223.954 174.051C223.788 174.202 223.661 174.391 223.582 174.601C223.503 174.811 223.475 175.037 223.5 175.26L228.35 208.55C228.96 210.29 239.13 225.02 244.8 232.43C254.28 244.8 268.24 236.88 272.08 228.22C275.08 221.35 279.82 210.91 281.06 207.06Z" fill="#FFC300"/>
<path d="M262.15 227.14C261.975 226.42 261.884 225.681 261.88 224.94C261.761 223.181 261.534 221.431 261.2 219.7C260.853 217.978 260.246 216.319 259.4 214.78C258.74 213.61 258.18 212.98 258.24 212.92C258.846 213.365 259.351 213.934 259.72 214.59C260.689 216.119 261.367 217.814 261.72 219.59C262.064 221.346 262.245 223.13 262.26 224.92C262.313 225.662 262.276 226.407 262.15 227.14Z" fill="#263238"/>
<path d="M266.27 220.26C266.19 220.26 266.12 219.54 265.77 218.45C265.309 217.042 264.54 215.754 263.52 214.68C262.57 213.552 261.232 212.821 259.77 212.63C259.162 212.642 258.562 212.768 258 213C258.229 212.76 258.508 212.573 258.817 212.454C259.127 212.334 259.459 212.285 259.79 212.31C260.579 212.355 261.351 212.56 262.058 212.915C262.765 213.269 263.392 213.764 263.9 214.37C264.978 215.487 265.747 216.865 266.13 218.37C266.324 218.98 266.372 219.628 266.27 220.26Z" fill="#263238"/>
<path d="M224.25 177.82C224.152 177.962 224.038 178.093 223.91 178.21L223.48 178.65L222.94 179.3C221.83 180.694 221.002 182.29 220.5 184C219.758 186.551 219.578 189.232 219.97 191.86C220.163 193.412 220.57 194.93 221.18 196.37C221.859 197.915 222.616 199.423 223.45 200.89C226.9 206.94 230.45 212.17 233.01 215.95L236.1 220.39C236.508 220.916 236.882 221.467 237.22 222.04C237.22 222.04 237.08 221.92 236.86 221.66C236.64 221.4 236.33 221.02 235.94 220.51C235.15 219.51 234.04 218.02 232.71 216.16C229.223 211.326 225.983 206.32 223 201.16C222.154 199.675 221.386 198.146 220.7 196.58C220.092 195.098 219.685 193.54 219.49 191.95C219.12 189.267 219.345 186.536 220.15 183.95C220.691 182.203 221.586 180.586 222.78 179.2L223.36 178.57C223.54 178.42 223.7 178.29 223.84 178.16C223.98 178.03 224.24 177.8 224.25 177.82Z" fill="#263238"/>
<g opacity="0.3">
<path d="M208.54 251C213.03 249 216.54 244.26 216.7 239.51C216.767 238.873 216.704 238.229 216.515 237.617C216.326 237.005 216.015 236.438 215.6 235.95C214.27 234.64 212.03 234.89 210.38 235.75C207.66 237.18 205.88 239.87 203.97 242.27C202.06 244.67 199.63 247.04 196.58 247.33C195.26 247.368 193.94 247.271 192.64 247.04C191.336 246.807 189.993 246.967 188.78 247.5C188.192 247.794 187.716 248.274 187.427 248.865C187.138 249.455 187.051 250.125 187.18 250.77C187.18 250.77 192.56 254.11 198.18 253.72C201.763 253.408 205.266 252.488 208.54 251Z" fill="black"/>
</g>
<path d="M224.28 266.27C224.146 266.35 224.001 266.411 223.85 266.45L222.59 266.89C222.04 267.08 221.36 267.3 220.59 267.51C219.82 267.72 218.9 268 217.88 268.22C215.508 268.786 213.108 269.227 210.69 269.54C204.76 270.293 198.759 270.293 192.83 269.54C190.412 269.243 188.012 268.816 185.64 268.26C184.64 268.05 183.72 267.78 182.92 267.57C182.12 267.36 181.44 267.14 180.92 266.96L179.65 266.53C179.499 266.485 179.355 266.421 179.22 266.34C179.379 266.355 179.537 266.385 179.69 266.43L180.98 266.76C181.54 266.92 182.22 267.11 182.98 267.29C183.74 267.47 184.69 267.71 185.71 267.9C187.71 268.34 190.16 268.74 192.88 269.06C195.825 269.388 198.786 269.555 201.75 269.56C204.714 269.535 207.675 269.352 210.62 269.01C213.34 268.68 215.77 268.26 217.79 267.81C218.79 267.62 219.71 267.37 220.51 267.18C221.31 266.99 221.99 266.81 222.51 266.65L223.8 266.3C223.957 266.264 224.119 266.254 224.28 266.27Z" fill="#263238"/>
</svg>
