<svg width="139" height="104" viewBox="0 0 139 104" fill="none" xmlns="http://www.w3.org/2000/svg">
<path d="M118.15 34.6667H115.926L107.239 13.0347C105.687 9.18852 103.019 5.89262 99.5759 3.57008C96.1333 1.24755 92.0734 0.00435901 87.9175 8.52644e-05H46.2175C41.3893 -0.0137006 36.7059 1.64461 32.9667 4.69196C29.2276 7.73931 26.6645 11.9868 25.715 16.7094L22.101 34.6667H20.85C15.3202 34.6667 10.017 36.8581 6.10682 40.7589C2.19669 44.6596 0 49.9502 0 55.4667V76.2667C0 78.1055 0.73223 79.869 2.03561 81.1693C3.33899 82.4696 5.10675 83.2 6.95 83.2H13.9C13.9 88.7165 16.0967 94.0071 20.0068 97.9078C23.917 101.809 29.2202 104 34.75 104C40.2798 104 45.583 101.809 49.4932 97.9078C53.4033 94.0071 55.6 88.7165 55.6 83.2H83.4C83.4 88.7165 85.5967 94.0071 89.5068 97.9078C93.417 101.809 98.7202 104 104.25 104C109.78 104 115.083 101.809 118.993 97.9078C122.903 94.0071 125.1 88.7165 125.1 83.2H132.05C133.893 83.2 135.661 82.4696 136.964 81.1693C138.268 79.869 139 78.1055 139 76.2667V55.4667C139 49.9502 136.803 44.6596 132.893 40.7589C128.983 36.8581 123.68 34.6667 118.15 34.6667ZM76.45 13.8667H87.9175C89.2976 13.8792 90.6427 14.3013 91.7814 15.0792C92.9201 15.8571 93.8009 16.9556 94.3115 18.2347L100.914 34.6667H76.45V13.8667ZM39.337 19.4134C39.6619 17.8238 40.5353 16.3981 41.8052 15.3846C43.0751 14.3712 44.6611 13.834 46.287 13.8667H62.55V34.6667H36.279L39.337 19.4134ZM34.75 90.1333C33.3754 90.1333 32.0317 89.7267 30.8888 88.9649C29.7459 88.203 28.8551 87.1202 28.329 85.8533C27.803 84.5864 27.6654 83.1923 27.9335 81.8474C28.2017 80.5024 28.8636 79.2671 29.8356 78.2974C30.8076 77.3278 32.046 76.6674 33.3941 76.3999C34.7423 76.1324 36.1397 76.2697 37.4096 76.7945C38.6796 77.3192 39.765 78.2079 40.5287 79.3481C41.2924 80.4882 41.7 81.8287 41.7 83.2C41.7 85.0388 40.9678 86.8024 39.6644 88.1026C38.361 89.4029 36.5933 90.1333 34.75 90.1333ZM104.25 90.1333C102.875 90.1333 101.532 89.7267 100.389 88.9649C99.2459 88.203 98.3551 87.1202 97.829 85.8533C97.303 84.5864 97.1654 83.1923 97.4335 81.8474C97.7017 80.5024 98.3636 79.2671 99.3356 78.2974C100.308 77.3278 101.546 76.6674 102.894 76.3999C104.242 76.1324 105.64 76.2697 106.91 76.7945C108.18 77.3192 109.265 78.2079 110.029 79.3481C110.792 80.4882 111.2 81.8287 111.2 83.2C111.2 85.0388 110.468 86.8024 109.164 88.1026C107.861 89.4029 106.093 90.1333 104.25 90.1333ZM125.1 69.3334H119.679C117.725 67.1885 115.343 65.4748 112.686 64.3021C110.029 63.1294 107.155 62.5236 104.25 62.5236C101.345 62.5236 98.4712 63.1294 95.8142 64.3021C93.1572 65.4748 90.7752 67.1885 88.821 69.3334H50.179C48.2248 67.1885 45.8428 65.4748 43.1858 64.3021C40.5288 63.1294 37.6554 62.5236 34.75 62.5236C31.8446 62.5236 28.9712 63.1294 26.3142 64.3021C23.6572 65.4748 21.2752 67.1885 19.321 69.3334H13.9V55.4667C13.9 53.6279 14.6322 51.8644 15.9356 50.5641C17.239 49.2639 19.0067 48.5334 20.85 48.5334H118.15C119.993 48.5334 121.761 49.2639 123.064 50.5641C124.368 51.8644 125.1 53.6279 125.1 55.4667V69.3334Z" fill="#FFC300"/>
</svg>
