<svg width="109" height="114" viewBox="0 0 109 114" fill="none" xmlns="http://www.w3.org/2000/svg">
<path d="M51.6158 102.57H17.2053C15.6842 102.57 14.2255 101.97 13.15 100.901C12.0744 99.8326 11.4702 98.3832 11.4702 96.8719V17.095C11.4702 15.5837 12.0744 14.1344 13.15 13.0657C14.2255 11.9971 15.6842 11.3967 17.2053 11.3967H45.8807V28.4917C45.8807 33.0256 47.6934 37.3738 50.92 40.5798C54.1467 43.7857 58.5229 45.5868 63.086 45.5868H80.2913V74.0785C80.2913 75.5898 80.8955 77.0392 81.971 78.1079C83.0466 79.1765 84.5053 79.7769 86.0264 79.7769C87.5474 79.7769 89.0062 79.1765 90.0817 78.1079C91.1572 77.0392 91.7615 75.5898 91.7615 74.0785V39.8884C91.7615 39.8884 91.7615 39.8884 91.7615 39.5465C91.7017 39.0231 91.5864 38.5073 91.4174 38.008V37.4951C91.1416 36.9092 90.7738 36.3706 90.3277 35.8996L55.9171 1.7095C55.4431 1.26627 54.901 0.9008 54.3113 0.626818C54.1216 0.593822 53.9275 0.593822 53.7378 0.626818C53.1802 0.330522 52.5808 0.119221 51.9599 0H17.2053C12.6422 0 8.26592 1.80108 5.03931 5.00702C1.81269 8.21297 0 12.5612 0 17.095V96.8719C0 101.406 1.81269 105.754 5.03931 108.96C8.26592 112.166 12.6422 113.967 17.2053 113.967H51.6158C53.1369 113.967 54.5956 113.367 55.6711 112.298C56.7467 111.229 57.3509 109.78 57.3509 108.269C57.3509 106.757 56.7467 105.308 55.6711 104.239C54.5956 103.171 53.1369 102.57 51.6158 102.57ZM57.3509 19.4314L72.2048 34.1901H63.086C61.565 34.1901 60.1062 33.5897 59.0307 32.5211C57.9552 31.4524 57.3509 30.003 57.3509 28.4917V19.4314ZM28.6755 68.3802H63.086C64.607 68.3802 66.0658 67.7798 67.1413 66.7112C68.2169 65.6425 68.8211 64.1931 68.8211 62.6818C68.8211 61.1705 68.2169 59.7211 67.1413 58.6525C66.0658 57.5838 64.607 56.9835 63.086 56.9835H28.6755C27.1544 56.9835 25.6957 57.5838 24.6201 58.6525C23.5446 59.7211 22.9404 61.1705 22.9404 62.6818C22.9404 64.1931 23.5446 65.6425 24.6201 66.7112C25.6957 67.7798 27.1544 68.3802 28.6755 68.3802ZM51.6158 79.7769H28.6755C27.1544 79.7769 25.6957 80.3772 24.6201 81.4459C23.5446 82.5145 22.9404 83.9639 22.9404 85.4752C22.9404 86.9865 23.5446 88.4359 24.6201 89.5046C25.6957 90.5732 27.1544 91.1736 28.6755 91.1736H51.6158C53.1369 91.1736 54.5956 90.5732 55.6711 89.5046C56.7467 88.4359 57.3509 86.9865 57.3509 85.4752C57.3509 83.9639 56.7467 82.5145 55.6711 81.4459C54.5956 80.3772 53.1369 79.7769 51.6158 79.7769ZM28.6755 45.5868H34.4105C35.9316 45.5868 37.3903 44.9864 38.4659 43.9178C39.5414 42.8491 40.1456 41.3997 40.1456 39.8884C40.1456 38.3771 39.5414 36.9277 38.4659 35.8591C37.3903 34.7905 35.9316 34.1901 34.4105 34.1901H28.6755C27.1544 34.1901 25.6957 34.7905 24.6201 35.8591C23.5446 36.9277 22.9404 38.3771 22.9404 39.8884C22.9404 41.3997 23.5446 42.8491 24.6201 43.9178C25.6957 44.9864 27.1544 45.5868 28.6755 45.5868ZM107.304 81.4294C106.77 80.8953 106.136 80.4714 105.437 80.1821C104.738 79.8928 103.989 79.7438 103.232 79.7438C102.475 79.7438 101.725 79.8928 101.026 80.1821C100.327 80.4714 99.6929 80.8953 99.1597 81.4294L80.2913 100.234L72.893 92.8261C72.3583 92.2948 71.7235 91.8733 71.0248 91.5858C70.3261 91.2982 69.5773 91.1503 68.8211 91.1503C68.0649 91.1503 67.3161 91.2982 66.6174 91.5858C65.9187 91.8733 65.2839 92.2948 64.7492 92.8261C64.2145 93.3574 63.7903 93.9882 63.5009 94.6823C63.2115 95.3765 63.0625 96.1205 63.0625 96.8719C63.0625 97.6233 63.2115 98.3673 63.5009 99.0615C63.7903 99.7557 64.2145 100.386 64.7492 100.918L76.2194 112.314C76.7525 112.849 77.3868 113.272 78.0857 113.562C78.7846 113.851 79.5342 114 80.2913 114C81.0484 114 81.798 113.851 82.4969 113.562C83.1957 113.272 83.83 112.849 84.3632 112.314L107.304 89.521C107.841 88.9913 108.268 88.3611 108.559 87.6667C108.85 86.9723 109 86.2275 109 85.4752C109 84.723 108.85 83.9782 108.559 83.2838C108.268 82.5894 107.841 81.9591 107.304 81.4294Z" fill="#FFC300"/>
</svg>
