<svg width="16" height="20" viewBox="0 0 16 20" fill="none" xmlns="http://www.w3.org/2000/svg">
<path d="M15 17.995H1C0.734784 17.995 0.48043 18.1004 0.292893 18.2879C0.105357 18.4754 0 18.7298 0 18.995C0 19.2602 0.105357 19.5146 0.292893 19.7021C0.48043 19.8897 0.734784 19.995 1 19.995H15C15.2652 19.995 15.5196 19.8897 15.7071 19.7021C15.8946 19.5146 16 19.2602 16 18.995C16 18.7298 15.8946 18.4754 15.7071 18.2879C15.5196 18.1004 15.2652 17.995 15 17.995ZM4.71 5.70501L7 3.40501V14.995C7 15.2602 7.10536 15.5146 7.29289 15.7021C7.48043 15.8897 7.73478 15.995 8 15.995C8.26522 15.995 8.51957 15.8897 8.70711 15.7021C8.89464 15.5146 9 15.2602 9 14.995V3.40501L11.29 5.70501C11.383 5.79874 11.4936 5.87314 11.6154 5.9239C11.7373 5.97467 11.868 6.00081 12 6.00081C12.132 6.00081 12.2627 5.97467 12.3846 5.9239C12.5064 5.87314 12.617 5.79874 12.71 5.70501C12.8037 5.61205 12.8781 5.50145 12.9289 5.37959C12.9797 5.25773 13.0058 5.12703 13.0058 4.99501C13.0058 4.863 12.9797 4.7323 12.9289 4.61044C12.8781 4.48858 12.8037 4.37798 12.71 4.28501L8.71 0.285014C8.6149 0.193973 8.50275 0.122608 8.38 0.0750135C8.13654 -0.0250045 7.86346 -0.0250045 7.62 0.0750135C7.49725 0.122608 7.3851 0.193973 7.29 0.285014L3.29 4.28501C3.19676 4.37825 3.1228 4.48894 3.07234 4.61076C3.02188 4.73259 2.99591 4.86315 2.99591 4.99501C2.99591 5.12687 3.02188 5.25744 3.07234 5.37926C3.1228 5.50108 3.19676 5.61178 3.29 5.70501C3.38324 5.79825 3.49393 5.87221 3.61575 5.92267C3.73757 5.97313 3.86814 5.9991 4 5.9991C4.13186 5.9991 4.26243 5.97313 4.38425 5.92267C4.50607 5.87221 4.61676 5.79825 4.71 5.70501Z" fill="#9A9292"/>
</svg>
