<svg width="20" height="21" viewBox="0 0 20 21" fill="none" xmlns="http://www.w3.org/2000/svg">
<path d="M19.5307 1.36185C19.3648 0.94337 19.0473 0.610818 18.6478 0.437029C18.4512 0.349272 18.2401 0.302724 18.0264 0.300018H1.67535C1.24169 0.300018 0.825797 0.480456 0.519155 0.801638C0.212513 1.12282 0.0402426 1.55843 0.0402426 2.01265C0.0402426 2.46687 0.212513 2.90249 0.519155 3.22367C0.825797 3.54485 1.24169 3.72529 1.67535 3.72529H14.0858L0.514424 17.923C0.361168 18.0822 0.239525 18.2717 0.156513 18.4804C0.0735009 18.6891 0.0307617 18.9129 0.0307617 19.139C0.0307617 19.3651 0.0735009 19.5889 0.156513 19.7976C0.239525 20.0063 0.361168 20.1957 0.514424 20.355C0.666428 20.5155 0.847273 20.6429 1.04653 20.7298C1.24578 20.8168 1.4595 20.8616 1.67535 20.8616C1.8912 20.8616 2.10492 20.8168 2.30417 20.7298C2.50343 20.6429 2.68427 20.5155 2.83628 20.355L16.3913 6.1401V19.139C16.3913 19.5932 16.5636 20.0288 16.8702 20.35C17.1769 20.6712 17.5928 20.8516 18.0264 20.8516C18.4601 20.8516 18.876 20.6712 19.1826 20.35C19.4893 20.0288 19.6615 19.5932 19.6615 19.139V2.01265C19.6589 1.78885 19.6145 1.56775 19.5307 1.36185Z" fill="black"/>
</svg>
