<svg width="127" height="99" viewBox="0 0 127 99" fill="none" xmlns="http://www.w3.org/2000/svg">
<path d="M65.3205 50.7812C68.4049 48.0915 70.8788 44.7648 72.5744 41.0269C74.27 37.289 75.1475 33.2274 75.1475 29.1176C75.1475 21.3952 72.1024 13.989 66.682 8.52836C61.2617 3.06774 53.9101 1.04189e-06 46.2446 1.04189e-06C38.5791 1.04189e-06 31.2275 3.06774 25.8072 8.52836C20.3868 13.989 17.3417 21.3952 17.3417 29.1176C17.3417 33.2274 18.2192 37.289 19.9148 41.0269C21.6104 44.7648 24.0843 48.0915 27.1687 50.7812C19.0767 54.4726 12.2113 60.4338 7.39324 67.9521C2.57522 75.4704 0.00850817 84.2275 0 93.1765C0 94.721 0.609023 96.2022 1.69309 97.2943C2.77716 98.3865 4.24747 99 5.78058 99C7.31368 99 8.78399 98.3865 9.86806 97.2943C10.9521 96.2022 11.5612 94.721 11.5612 93.1765C11.5612 83.9095 15.2153 75.0221 21.7197 68.4693C28.2241 61.9166 37.046 58.2353 46.2446 58.2353C55.4432 58.2353 64.2651 61.9166 70.7695 68.4693C77.2739 75.0221 80.9281 83.9095 80.9281 93.1765C80.9281 94.721 81.5371 96.2022 82.6212 97.2943C83.7052 98.3865 85.1755 99 86.7086 99C88.2418 99 89.7121 98.3865 90.7961 97.2943C91.8802 96.2022 92.4892 94.721 92.4892 93.1765C92.4807 84.2275 89.914 75.4704 85.096 67.9521C80.278 60.4338 73.4125 54.4726 65.3205 50.7812ZM46.2446 46.5882C42.8147 46.5882 39.4619 45.5636 36.6101 43.6439C33.7582 41.7242 31.5355 38.9957 30.2229 35.8034C28.9104 32.611 28.567 29.0983 29.2361 25.7093C29.9052 22.3203 31.5569 19.2074 33.9822 16.7641C36.4074 14.3208 39.4974 12.6569 42.8614 11.9828C46.2254 11.3086 49.7122 11.6546 52.881 12.9769C56.0498 14.2992 58.7582 16.5385 60.6637 19.4115C62.5693 22.2845 63.5863 25.6623 63.5863 29.1176C63.5863 33.7511 61.7593 38.1948 58.5071 41.4712C55.2549 44.7476 50.8439 46.5882 46.2446 46.5882ZM102.547 48.4518C106.247 44.2549 108.663 39.0704 109.506 33.5222C110.349 27.974 109.582 22.2987 107.298 17.1794C105.013 12.0601 101.309 7.71499 96.6308 4.66711C91.9525 1.61923 86.4994 -0.00150014 80.9281 1.04189e-06C79.395 1.04189e-06 77.9247 0.613549 76.8406 1.70567C75.7565 2.7978 75.1475 4.27903 75.1475 5.82353C75.1475 7.36803 75.7565 8.84926 76.8406 9.94139C77.9247 11.0335 79.395 11.6471 80.9281 11.6471C85.5274 11.6471 89.9383 13.4877 93.1905 16.7641C96.4427 20.0404 98.2698 24.4842 98.2698 29.1176C98.2616 32.1764 97.4565 35.1794 95.9348 37.8263C94.4132 40.4732 92.2284 42.6712 89.5989 44.2006C88.7419 44.6986 88.0261 45.4099 87.52 46.2664C87.014 47.1229 86.7346 48.0959 86.7086 49.0924C86.6845 50.081 86.9106 51.0595 87.3657 51.9357C87.8208 52.812 88.4899 53.557 89.3099 54.1006L91.5643 55.6147L92.3158 56.0224C99.2837 59.3518 105.162 64.6178 109.259 71.2003C113.355 77.7828 115.499 85.4075 115.438 93.1765C115.438 94.721 116.047 96.2022 117.131 97.2943C118.215 98.3865 119.686 99 121.219 99C122.752 99 124.222 98.3865 125.306 97.2943C126.39 96.2022 126.999 94.721 126.999 93.1765C127.047 84.2398 124.825 75.4395 120.545 67.6115C116.265 59.7836 110.07 53.1881 102.547 48.4518Z" fill="#FFC300"/>
</svg>
