<svg width="5" height="5" viewBox="0 0 15 16" fill="none" xmlns="http://www.w3.org/2000/svg">
<path d="M13.6237 10.6338L9.06203 8L13.6237 5.36621C13.8533 5.23353 14.0208 5.0151 14.0894 4.75896C14.158 4.50281 14.1221 4.22991 13.9895 4.00026C13.8569 3.7706 13.6386 3.60299 13.3825 3.53427C13.1264 3.46555 12.8534 3.50134 12.6237 3.63379L8.06172 6.26776V1C8.06172 0.734784 7.95636 0.48043 7.76883 0.292893C7.58129 0.105357 7.32694 0 7.06172 0C6.7965 0 6.54215 0.105357 6.35461 0.292893C6.16708 0.48043 6.06172 0.734784 6.06172 1V6.26776L1.49972 3.63376C1.27 3.50131 0.997077 3.46552 0.740966 3.53424C0.484855 3.60296 0.266516 3.77057 0.133952 4.00023C0.00138853 4.22988 -0.0345494 4.50278 0.0340399 4.75893C0.102629 5.01507 0.270131 5.2335 0.49972 5.36618L5.06141 8L0.49972 10.6338C0.270131 10.7665 0.102629 10.9849 0.0340399 11.241C-0.0345494 11.4972 0.00138853 11.7701 0.133952 11.9997C0.266516 12.2294 0.484855 12.397 0.740966 12.4657C0.997077 12.5345 1.27 12.4987 1.49972 12.3662L6.06172 9.73224V15C6.06172 15.2652 6.16708 15.5196 6.35461 15.7071C6.54215 15.8946 6.7965 16 7.06172 16C7.32694 16 7.58129 15.8946 7.76883 15.7071C7.95636 15.5196 8.06172 15.2652 8.06172 15V9.73224L12.6237 12.3662C12.8534 12.4987 13.1264 12.5345 13.3825 12.4658C13.6386 12.397 13.8569 12.2294 13.9895 11.9998C14.1221 11.7701 14.158 11.4972 14.0894 11.2411C14.0208 10.9849 13.8533 10.7665 13.6237 10.6338V10.6338Z" fill="#FF2525"/>
</svg>
